<?xml version="1.0" encoding="utf-8"?>
<!-- Generator: Adobe Illustrator 16.0.0, SVG Export Plug-In . SVG Version: 6.00 Build 0)  -->
<!DOCTYPE svg PUBLIC "-//W3C//DTD SVG 1.1//EN" "http://www.w3.org/Graphics/SVG/1.1/DTD/svg11.dtd">
<svg version="1.1" id="Layer_1" xmlns="http://www.w3.org/2000/svg" xmlns:xlink="http://www.w3.org/1999/xlink" x="0px" y="0px"
	 width="1920px" height="100px" viewBox="0 0 1920 100" enable-background="new 0 0 1920 100" xml:space="preserve">
<path fill-rule="evenodd" clip-rule="evenodd" d="M156.78,93.088c-1.193,0-2.319,0-3.586,0c0-28.721,0-57.408,0-86.176
	c1.234,0,2.357,0,3.586,0C156.78,35.663,156.78,64.33,156.78,93.088z"/>
<path fill-rule="evenodd" clip-rule="evenodd" d="M40.076,8.755c1.221,0,2.343,0,3.58,0c0,27.497,0,54.95,0,82.49
	c-1.201,0-2.325,0-3.58,0C40.076,63.737,40.076,36.294,40.076,8.755z"/>
<path fill-rule="evenodd" clip-rule="evenodd" d="M236.625,85.478c-1.236,0-2.332,0-3.574,0c0-23.647,0-47.249,0-70.955
	c1.174,0,2.324,0,3.574,0C236.625,38.179,236.625,61.755,236.625,85.478z"/>
<path fill-rule="evenodd" clip-rule="evenodd" d="M150.162,84.5c-1.291,0-2.414,0-3.658,0c0-23.004,0-45.943,0-69
	c1.215,0,2.4,0,3.658,0C150.162,38.509,150.162,61.418,150.162,84.5z"/>
<path fill-rule="evenodd" clip-rule="evenodd" d="M37.04,81.709c-1.262,0-2.418,0-3.658,0c0-21.151,0-42.212,0-63.418
	c1.205,0,2.38,0,3.658,0C37.04,39.453,37.04,60.535,37.04,81.709z"/>
<path fill-rule="evenodd" clip-rule="evenodd" d="M123.54,80.885c-1.234,0-2.385,0-3.646,0c0-20.617,0-41.14,0-61.769
	c1.255,0,2.409,0,3.646,0C123.54,39.713,123.54,60.244,123.54,80.885z"/>
<path fill-rule="evenodd" clip-rule="evenodd" d="M243.284,79.889c-1.258,0-2.352,0-3.583,0c0-19.932,0-39.795,0-59.777
	c1.162,0,2.312,0,3.583,0C243.284,40.019,243.284,59.881,243.284,79.889z"/>
<path fill-rule="evenodd" clip-rule="evenodd" d="M56.958,78.071c-1.218,0-2.341,0-3.567,0c0-18.741,0-37.393,0-56.143
	c1.176,0,2.304,0,3.567,0C56.958,40.607,56.958,59.253,56.958,78.071z"/>
<path fill-rule="evenodd" clip-rule="evenodd" d="M159.816,22.881c1.278,0,2.406,0,3.65,0c0,18.084,0,36.099,0,54.238
	c-1.202,0-2.384,0-3.65,0C159.816,59.02,159.816,41.036,159.816,22.881z"/>
<path fill-rule="evenodd" clip-rule="evenodd" d="M26.737,23.743c1.23,0,2.383,0,3.64,0c0,17.527,0,34.954,0,52.514
	c-1.214,0-2.361,0-3.64,0C26.737,58.755,26.737,41.302,26.737,23.743z"/>
<path fill-rule="evenodd" clip-rule="evenodd" d="M139.87,23.739c1.278,0,2.401,0,3.617,0c0,17.531,0,34.96,0,52.521
	c-1.191,0-2.336,0-3.617,0C139.87,58.754,139.87,41.302,139.87,23.739z"/>
<path fill-rule="evenodd" clip-rule="evenodd" d="M272.951,25.568c1.248,0,2.373,0,3.625,0c0,16.3,0,32.528,0,48.863
	c-1.189,0-2.346,0-3.625,0C272.951,58.197,272.951,41.968,272.951,25.568z"/>
<path fill-rule="evenodd" clip-rule="evenodd" d="M226.403,25.563c1.241,0,2.333,0,3.561,0c0,16.304,0,32.54,0,48.873
	c-1.187,0-2.336,0-3.561,0C226.403,58.139,226.403,41.93,226.403,25.563z"/>
<path fill-rule="evenodd" clip-rule="evenodd" d="M246.378,25.58c1.223,0,2.314,0,3.536,0c0,16.271,0,32.499,0,48.84
	c-1.155,0-2.303,0-3.536,0C246.378,58.148,246.378,41.945,246.378,25.58z"/>
<path fill-rule="evenodd" clip-rule="evenodd" d="M126.594,73.01c0-15.391,0-30.637,0-46.02c1.154,0,2.267,0,3.553,0
	c0,15.32,0,30.619,0,46.02C128.994,73.01,127.875,73.01,126.594,73.01z"/>
<path fill-rule="evenodd" clip-rule="evenodd" d="M166.521,28.767c1.214,0,2.306,0,3.548,0c0,14.154,0,28.265,0,42.467
	c-1.193,0-2.315,0-3.548,0C166.521,57.103,166.521,43.015,166.521,28.767z"/>
<path fill-rule="evenodd" clip-rule="evenodd" d="M266.307,28.768c1.262,0,2.356,0,3.604,0c0,14.156,0,28.28,0,42.465
	c-1.22,0-2.379,0-3.604,0C266.307,57.063,266.307,42.988,266.307,28.768z"/>
<path fill-rule="evenodd" clip-rule="evenodd" d="M63.67,69.381c-1.265,0-2.418,0-3.685,0c0-12.961,0-25.828,0-38.762
	c1.271,0,2.433,0,3.685,0C63.67,43.531,63.67,56.374,63.67,69.381z"/>
<path fill-rule="evenodd" clip-rule="evenodd" d="M90.251,69.371c-1.311,0-2.392,0-3.612,0c0-12.958,0-25.816,0-38.742
	c1.226,0,2.39,0,3.612,0C90.251,43.537,90.251,56.362,90.251,69.371z"/>
<path fill-rule="evenodd" clip-rule="evenodd" d="M279.648,30.646c1.206,0,2.334,0,3.538,0c0,12.915,0,25.795,0,38.709
	c-1.271,0-2.343,0-3.538,0C279.648,56.403,279.648,43.604,279.648,30.646z"/>
<path fill-rule="evenodd" clip-rule="evenodd" d="M256.574,69.368c-1.211,0-2.3,0-3.548,0c0-12.904,0-25.767,0-38.736
	c1.147,0,2.3,0,3.548,0C256.574,43.519,256.574,56.358,256.574,69.368z"/>
<path fill-rule="evenodd" clip-rule="evenodd" d="M116.847,69.386c-1.227,0-2.348,0-3.57,0c0-12.966,0-25.842,0-38.771
	c1.208,0,2.337,0,3.57,0C116.847,43.536,116.847,56.378,116.847,69.386z"/>
<path fill-rule="evenodd" clip-rule="evenodd" d="M46.709,31.935c1.208,0,2.359,0,3.621,0c0,12.071,0,24.047,0,36.129
	c-1.214,0-2.363,0-3.621,0C46.709,56.004,46.709,44.024,46.709,31.935z"/>
<path fill-rule="evenodd" clip-rule="evenodd" d="M196.697,67.597c-1.199,0-2.317,0-3.569,0c0-11.74,0-23.415,0-35.193
	c1.202,0,2.323,0,3.569,0C196.697,44.099,196.697,55.756,196.697,67.597z"/>
<path fill-rule="evenodd" clip-rule="evenodd" d="M259.631,33.314c1.235,0,2.39,0,3.647,0c0,11.142,0,22.2,0,33.372
	c-1.233,0-2.384,0-3.647,0C259.631,55.543,259.631,44.483,259.631,33.314z"/>
<path fill-rule="evenodd" clip-rule="evenodd" d="M223.317,66.694c-1.257,0-2.351,0-3.576,0c0-11.138,0-22.204,0-33.389
	c1.144,0,2.294,0,3.576,0C223.317,44.435,223.317,55.494,223.317,66.694z"/>
<path fill-rule="evenodd" clip-rule="evenodd" d="M306.261,34.225c1.225,0,2.32,0,3.547,0c0,10.502,0,20.965,0,31.551
	c-1.15,0-2.295,0-3.547,0C306.261,55.248,306.261,44.813,306.261,34.225z"/>
<path fill-rule="evenodd" clip-rule="evenodd" d="M23.681,64.34c-1.229,0-2.324,0-3.556,0c0-9.567,0-19.073,0-28.68
	c1.181,0,2.306,0,3.556,0C23.681,45.192,23.681,54.699,23.681,64.34z"/>
<path fill-rule="evenodd" clip-rule="evenodd" d="M173.155,36.081c1.227,0,2.35,0,3.59,0c0,9.273,0,18.49,0,27.839
	c-1.164,0-2.311,0-3.59,0C173.155,54.684,173.155,45.468,173.155,36.081z"/>
<path fill-rule="evenodd" clip-rule="evenodd" d="M93.33,36.076c1.194,0,2.316,0,3.538,0c0,9.289,0,18.494,0,27.848
	c-1.22,0-2.317,0-3.538,0C93.33,54.576,93.33,45.367,93.33,36.076z"/>
<path fill-rule="evenodd" clip-rule="evenodd" d="M66.671,37.892c1.208,0,2.355,0,3.623,0c0,8.082,0,16.077,0,24.217
	c-1.181,0-2.329,0-3.623,0C66.671,54.062,66.671,46.037,66.671,37.892z"/>
<path fill-rule="evenodd" clip-rule="evenodd" d="M303.194,62.13c-1.255,0-2.382,0-3.629,0c0-8.076,0-16.104,0-24.26
	c1.197,0,2.344,0,3.629,0C303.194,45.93,303.194,53.945,303.194,62.13z"/>
<path fill-rule="evenodd" clip-rule="evenodd" d="M136.78,62.144c-1.196,0-2.287,0-3.51,0c0-8.081,0-16.129,0-24.287
	c1.167,0,2.279,0,3.51,0C136.78,45.95,136.78,53.967,136.78,62.144z"/>
<path fill-rule="evenodd" clip-rule="evenodd" d="M203.378,62.164c-1.237-0.061-2.354-0.115-3.624-0.18c0-8.082,0-16.042,0-24.149
	c1.167,0,2.342,0,3.624,0C203.378,45.901,203.378,53.902,203.378,62.164z"/>
<path fill-rule="evenodd" clip-rule="evenodd" d="M17.015,62.143c-1.237,0-2.329,0-3.533,0c0-8.105,0-16.139,0-24.285
	c1.166,0,2.283,0,3.533,0C17.015,45.934,17.015,53.962,17.015,62.143z"/>
<path fill-rule="evenodd" clip-rule="evenodd" d="M289.817,62.133c-1.202,0-2.255,0-3.491,0c0-8.117,0-16.139,0-24.266
	c1.145,0,2.261,0,3.491,0C289.817,45.971,289.817,54,289.817,62.133z"/>
<path fill-rule="evenodd" clip-rule="evenodd" d="M190.034,60.936c-1.253,0.076-2.341,0.142-3.552,0.216c0-7.503,0-14.86,0-22.303
	c1.202,0,2.326,0,3.552,0C190.034,46.212,190.034,53.524,190.034,60.936z"/>
<path fill-rule="evenodd" clip-rule="evenodd" d="M79.966,39.665c1.285,0,2.414,0,3.65,0c0,6.908,0,13.751,0,20.67
	c-1.227,0-2.382,0-3.65,0C79.966,53.428,79.966,46.624,79.966,39.665z"/>
<path fill-rule="evenodd" clip-rule="evenodd" d="M110.185,60.316c-1.215,0-2.306,0-3.555,0c0-6.859,0-13.686,0-20.633
	c1.107,0,2.258,0,3.555,0C110.185,46.519,110.185,53.34,110.185,60.316z"/>
<path fill-rule="evenodd" clip-rule="evenodd" d="M316.513,40.727c0,6.213,0,12.323,0,18.547c-1.232,0-2.382,0-3.649,0
	c0-6.181,0-12.317,0-18.547C314.084,40.727,315.208,40.727,316.513,40.727z"/>
<path fill-rule="evenodd" clip-rule="evenodd" d="M183.429,57.426c-1.292,0-2.4,0-3.649,0c0-4.916,0-9.827,0-14.852
	c1.209,0,2.396,0,3.649,0C183.429,47.495,183.429,52.342,183.429,57.426z"/>
<path fill-rule="evenodd" clip-rule="evenodd" d="M216.67,57.449c-1.21,0-2.33,0-3.591,0c0-4.954,0-9.868,0-14.898
	c1.177,0,2.331,0,3.591,0C216.67,47.488,216.67,52.375,216.67,57.449z"/>
<path fill-rule="evenodd" clip-rule="evenodd" d="M10.386,57.412c-1.264,0-2.372,0-3.584,0c0-4.922,0-9.807,0-14.825
	c1.192,0,2.34,0,3.584,0C10.386,47.499,10.386,52.371,10.386,57.412z"/>
<path fill-rule="evenodd" clip-rule="evenodd" d="M292.89,51.771c0-1.174,0-2.324,0-3.541c1.256,0,2.408,0,3.672,0
	c0,1.184,0,2.264,0,3.541C295.34,51.771,294.202,51.771,292.89,51.771z"/>
<path fill-rule="evenodd" clip-rule="evenodd" d="M323.139,48.181c0,1.285,0,2.406,0,3.639c-1.199,0-2.314,0-3.592,0
	c0-1.188,0-2.355,0-3.639C320.735,48.181,321.878,48.181,323.139,48.181z"/>
<path fill-rule="evenodd" clip-rule="evenodd" d="M206.403,51.812c0-1.269,0-2.388,0-3.625c1.238,0,2.382,0,3.635,0
	c0,1.212,0,2.362,0,3.625C208.846,51.812,207.697,51.812,206.403,51.812z"/>
<path fill-rule="evenodd" clip-rule="evenodd" d="M76.983,51.802c-1.303,0-2.457,0-3.694,0c0-1.228,0-2.349,0-3.604
	c1.247,0,2.424,0,3.694,0C76.983,49.415,76.983,50.538,76.983,51.802z"/>
<path fill-rule="evenodd" clip-rule="evenodd" d="M103.541,48.123c0,1.197,0,2.277,0,3.555c-1.218,0.068-2.33,0.129-3.574,0.199
	c0-1.33,0-2.479,0-3.754C101.143,48.123,102.262,48.123,103.541,48.123z"/>
<path fill-rule="evenodd" clip-rule="evenodd" d="M3.63,51.756c-1.259,0-2.335,0-3.549,0c0-1.207,0-2.314,0-3.512
	c1.197,0,2.339,0,3.717,0C3.74,49.472,3.688,50.571,3.63,51.756z"/>
<path fill-rule="evenodd" clip-rule="evenodd" d="M476.183,93.088c-1.194,0-2.32,0-3.587,0c0-28.721,0-57.409,0-86.176
	c1.234,0,2.357,0,3.587,0C476.183,35.663,476.183,64.33,476.183,93.088z"/>
<path fill-rule="evenodd" clip-rule="evenodd" d="M359.478,8.754c1.221,0,2.344,0,3.58,0c0,27.497,0,54.951,0,82.492
	c-1.201,0-2.325,0-3.58,0C359.478,63.738,359.478,36.294,359.478,8.754z"/>
<path fill-rule="evenodd" clip-rule="evenodd" d="M556.027,85.479c-1.237,0-2.332,0-3.574,0c0-23.648,0-47.25,0-70.957
	c1.174,0,2.325,0,3.574,0C556.027,38.178,556.027,61.754,556.027,85.479z"/>
<path fill-rule="evenodd" clip-rule="evenodd" d="M469.564,84.499c-1.291,0-2.414,0-3.658,0c0-23.004,0-45.941,0-68.998
	c1.215,0,2.4,0,3.658,0C469.564,38.51,469.564,61.417,469.564,84.499z"/>
<path fill-rule="evenodd" clip-rule="evenodd" d="M356.442,81.709c-1.262,0-2.418,0-3.658,0c0-21.151,0-42.212,0-63.418
	c1.205,0,2.38,0,3.658,0C356.442,39.453,356.442,60.535,356.442,81.709z"/>
<path fill-rule="evenodd" clip-rule="evenodd" d="M442.942,80.885c-1.234,0-2.384,0-3.647,0c0-20.617,0-41.14,0-61.77
	c1.255,0,2.409,0,3.647,0C442.942,39.712,442.942,60.246,442.942,80.885z"/>
<path fill-rule="evenodd" clip-rule="evenodd" d="M562.686,79.889c-1.258,0-2.352,0-3.583,0c0-19.932,0-39.795,0-59.777
	c1.162,0,2.312,0,3.583,0C562.686,40.018,562.686,59.881,562.686,79.889z"/>
<path fill-rule="evenodd" clip-rule="evenodd" d="M376.36,78.071c-1.219,0-2.342,0-3.567,0c0-18.741,0-37.393,0-56.143
	c1.176,0,2.304,0,3.567,0C376.36,40.607,376.36,59.253,376.36,78.071z"/>
<path fill-rule="evenodd" clip-rule="evenodd" d="M479.218,22.881c1.278,0,2.406,0,3.651,0c0,18.084,0,36.099,0,54.238
	c-1.203,0-2.384,0-3.651,0C479.218,59.02,479.218,41.035,479.218,22.881z"/>
<path fill-rule="evenodd" clip-rule="evenodd" d="M346.139,23.744c1.23,0,2.383,0,3.64,0c0,17.527,0,34.954,0,52.512
	c-1.214,0-2.361,0-3.64,0C346.139,58.754,346.139,41.302,346.139,23.744z"/>
<path fill-rule="evenodd" clip-rule="evenodd" d="M459.272,23.739c1.278,0,2.402,0,3.618,0c0,17.53,0,34.959,0,52.521
	c-1.191,0-2.336,0-3.618,0C459.272,58.754,459.272,41.302,459.272,23.739z"/>
<path fill-rule="evenodd" clip-rule="evenodd" d="M592.354,25.568c1.248,0,2.373,0,3.624,0c0,16.3,0,32.529,0,48.863
	c-1.188,0-2.345,0-3.624,0C592.354,58.197,592.354,41.968,592.354,25.568z"/>
<path fill-rule="evenodd" clip-rule="evenodd" d="M545.806,25.564c1.241,0,2.333,0,3.561,0c0,16.303,0,32.538,0,48.871
	c-1.186,0-2.336,0-3.561,0C545.806,58.138,545.806,41.93,545.806,25.564z"/>
<path fill-rule="evenodd" clip-rule="evenodd" d="M565.781,25.578c1.223,0,2.315,0,3.536,0c0,16.271,0,32.502,0,48.844
	c-1.155,0-2.302,0-3.536,0C565.781,58.149,565.781,41.943,565.781,25.578z"/>
<path fill-rule="evenodd" clip-rule="evenodd" d="M445.996,73.01c0-15.389,0-30.638,0-46.02c1.154,0,2.267,0,3.553,0
	c0,15.32,0,30.62,0,46.02C448.396,73.01,447.278,73.01,445.996,73.01z"/>
<path fill-rule="evenodd" clip-rule="evenodd" d="M485.923,28.766c1.214,0,2.306,0,3.549,0c0,14.154,0,28.265,0,42.468
	c-1.193,0-2.315,0-3.549,0C485.923,57.104,485.923,43.014,485.923,28.766z"/>
<path fill-rule="evenodd" clip-rule="evenodd" d="M585.709,28.767c1.262,0,2.355,0,3.604,0c0,14.156,0,28.281,0,42.467
	c-1.221,0-2.379,0-3.604,0C585.709,57.063,585.709,42.987,585.709,28.767z"/>
<path fill-rule="evenodd" clip-rule="evenodd" d="M383.073,69.381c-1.265,0-2.418,0-3.685,0c0-12.961,0-25.828,0-38.762
	c1.271,0,2.433,0,3.685,0C383.073,43.532,383.073,56.375,383.073,69.381z"/>
<path fill-rule="evenodd" clip-rule="evenodd" d="M409.653,69.371c-1.311,0-2.392,0-3.612,0c0-12.957,0-25.816,0-38.743
	c1.227,0,2.39,0,3.612,0C409.653,43.538,409.653,56.363,409.653,69.371z"/>
<path fill-rule="evenodd" clip-rule="evenodd" d="M599.051,30.646c1.205,0,2.333,0,3.538,0c0,12.915,0,25.793,0,38.707
	c-1.271,0-2.343,0-3.538,0C599.051,56.402,599.051,43.605,599.051,30.646z"/>
<path fill-rule="evenodd" clip-rule="evenodd" d="M575.977,69.367c-1.211,0-2.3,0-3.548,0c0-12.904,0-25.765,0-38.734
	c1.147,0,2.3,0,3.548,0C575.977,43.52,575.977,56.357,575.977,69.367z"/>
<path fill-rule="evenodd" clip-rule="evenodd" d="M436.25,69.387c-1.227,0-2.348,0-3.57,0c0-12.966,0-25.844,0-38.773
	c1.208,0,2.337,0,3.57,0C436.25,43.534,436.25,56.379,436.25,69.387z"/>
<path fill-rule="evenodd" clip-rule="evenodd" d="M366.111,31.935c1.207,0,2.358,0,3.621,0c0,12.071,0,24.047,0,36.129
	c-1.214,0-2.363,0-3.621,0C366.111,56.004,366.111,44.025,366.111,31.935z"/>
<path fill-rule="evenodd" clip-rule="evenodd" d="M516.1,67.598c-1.199,0-2.317,0-3.569,0c0-11.739,0-23.417,0-35.195
	c1.202,0,2.323,0,3.569,0C516.1,44.099,516.1,55.757,516.1,67.598z"/>
<path fill-rule="evenodd" clip-rule="evenodd" d="M579.034,33.314c1.235,0,2.391,0,3.647,0c0,11.143,0,22.199,0,33.371
	c-1.233,0-2.384,0-3.647,0C579.034,55.542,579.034,44.484,579.034,33.314z"/>
<path fill-rule="evenodd" clip-rule="evenodd" d="M542.72,66.693c-1.258,0-2.35,0-3.577,0c0-11.138,0-22.203,0-33.387
	c1.144,0,2.295,0,3.577,0C542.72,44.434,542.72,55.494,542.72,66.693z"/>
<path fill-rule="evenodd" clip-rule="evenodd" d="M625.663,34.225c1.225,0,2.32,0,3.547,0c0,10.501,0,20.965,0,31.551
	c-1.149,0-2.295,0-3.547,0C625.663,55.248,625.663,44.813,625.663,34.225z"/>
<path fill-rule="evenodd" clip-rule="evenodd" d="M343.083,64.34c-1.229,0-2.324,0-3.556,0c0-9.567,0-19.074,0-28.68
	c1.181,0,2.306,0,3.556,0C343.083,45.191,343.083,54.699,343.083,64.34z"/>
<path fill-rule="evenodd" clip-rule="evenodd" d="M492.557,36.08c1.227,0,2.35,0,3.59,0c0,9.274,0,18.49,0,27.84
	c-1.163,0-2.311,0-3.59,0C492.557,54.684,492.557,45.468,492.557,36.08z"/>
<path fill-rule="evenodd" clip-rule="evenodd" d="M412.732,36.076c1.194,0,2.316,0,3.538,0c0,9.288,0,18.493,0,27.848
	c-1.22,0-2.317,0-3.538,0C412.732,54.575,412.732,45.366,412.732,36.076z"/>
<path fill-rule="evenodd" clip-rule="evenodd" d="M386.073,37.892c1.208,0,2.355,0,3.623,0c0,8.081,0,16.076,0,24.217
	c-1.18,0-2.329,0-3.623,0C386.073,54.062,386.073,46.037,386.073,37.892z"/>
<path fill-rule="evenodd" clip-rule="evenodd" d="M622.597,62.129c-1.255,0-2.381,0-3.628,0c0-8.075,0-16.103,0-24.258
	c1.196,0,2.344,0,3.628,0C622.597,45.929,622.597,53.945,622.597,62.129z"/>
<path fill-rule="evenodd" clip-rule="evenodd" d="M456.182,62.144c-1.196,0-2.287,0-3.511,0c0-8.082,0-16.13,0-24.287
	c1.167,0,2.279,0,3.511,0C456.182,45.949,456.182,53.966,456.182,62.144z"/>
<path fill-rule="evenodd" clip-rule="evenodd" d="M522.781,62.165c-1.237-0.062-2.354-0.116-3.624-0.18c0-8.084,0-16.043,0-24.15
	c1.167,0,2.342,0,3.624,0C522.781,45.9,522.781,53.901,522.781,62.165z"/>
<path fill-rule="evenodd" clip-rule="evenodd" d="M336.417,62.141c-1.236,0-2.328,0-3.532,0c0-8.104,0-16.134,0-24.282
	c1.166,0,2.282,0,3.532,0C336.417,45.934,336.417,53.965,336.417,62.141z"/>
<path fill-rule="evenodd" clip-rule="evenodd" d="M609.22,62.133c-1.203,0-2.256,0-3.491,0c0-8.117,0-16.139,0-24.266
	c1.145,0,2.261,0,3.491,0C609.22,45.971,609.22,53.999,609.22,62.133z"/>
<path fill-rule="evenodd" clip-rule="evenodd" d="M509.437,60.936c-1.253,0.076-2.341,0.143-3.552,0.217c0-7.504,0-14.862,0-22.304
	c1.202,0,2.326,0,3.552,0C509.437,46.212,509.437,53.523,509.437,60.936z"/>
<path fill-rule="evenodd" clip-rule="evenodd" d="M399.368,39.665c1.286,0,2.413,0,3.65,0c0,6.909,0,13.751,0,20.671
	c-1.227,0-2.382,0-3.65,0C399.368,53.43,399.368,46.624,399.368,39.665z"/>
<path fill-rule="evenodd" clip-rule="evenodd" d="M429.587,60.317c-1.215,0-2.306,0-3.555,0c0-6.86,0-13.687,0-20.635
	c1.107,0,2.258,0,3.555,0C429.587,46.52,429.587,53.341,429.587,60.317z"/>
<path fill-rule="evenodd" clip-rule="evenodd" d="M635.915,40.728c0,6.213,0,12.323,0,18.545c-1.232,0-2.381,0-3.649,0
	c0-6.18,0-12.316,0-18.545C633.487,40.728,634.611,40.728,635.915,40.728z"/>
<path fill-rule="evenodd" clip-rule="evenodd" d="M502.831,57.426c-1.292,0-2.4,0-3.649,0c0-4.915,0-9.825,0-14.852
	c1.208,0,2.396,0,3.649,0C502.831,47.495,502.831,52.342,502.831,57.426z"/>
<path fill-rule="evenodd" clip-rule="evenodd" d="M536.073,57.449c-1.21,0-2.33,0-3.591,0c0-4.953,0-9.868,0-14.898
	c1.177,0,2.331,0,3.591,0C536.073,47.489,536.073,52.375,536.073,57.449z"/>
<path fill-rule="evenodd" clip-rule="evenodd" d="M329.789,57.414c-1.265,0-2.373,0-3.584,0c0-4.924,0-9.811,0-14.828
	c1.191,0,2.34,0,3.584,0C329.789,47.496,329.789,52.37,329.789,57.414z"/>
<path fill-rule="evenodd" clip-rule="evenodd" d="M612.292,51.77c0-1.173,0-2.324,0-3.54c1.256,0,2.408,0,3.673,0
	c0,1.183,0,2.263,0,3.54C614.743,51.77,613.604,51.77,612.292,51.77z"/>
<path fill-rule="evenodd" clip-rule="evenodd" d="M642.541,48.18c0,1.285,0,2.406,0,3.64c-1.198,0-2.314,0-3.592,0
	c0-1.189,0-2.357,0-3.64C640.138,48.18,641.28,48.18,642.541,48.18z"/>
<path fill-rule="evenodd" clip-rule="evenodd" d="M525.806,51.812c0-1.269,0-2.389,0-3.625c1.237,0,2.383,0,3.635,0
	c0,1.211,0,2.363,0,3.625C528.248,51.812,527.099,51.812,525.806,51.812z"/>
<path fill-rule="evenodd" clip-rule="evenodd" d="M396.386,51.802c-1.303,0-2.456,0-3.693,0c0-1.228,0-2.348,0-3.604
	c1.247,0,2.424,0,3.693,0C396.386,49.415,396.386,50.538,396.386,51.802z"/>
<path fill-rule="evenodd" clip-rule="evenodd" d="M422.943,48.124c0,1.196,0,2.275,0,3.554c-1.218,0.067-2.33,0.13-3.575,0.198
	c0-1.33,0-2.478,0-3.752C420.545,48.124,421.665,48.124,422.943,48.124z"/>
<path fill-rule="evenodd" clip-rule="evenodd" d="M805.308,93.087c1.193,0,2.319,0,3.586,0c0-28.721,0-57.407,0-86.174
	c-1.233,0-2.357,0-3.586,0C805.308,35.663,805.308,64.329,805.308,93.087z"/>
<path fill-rule="evenodd" clip-rule="evenodd" d="M922.012,8.754c-1.221,0-2.344,0-3.58,0c0,27.497,0,54.953,0,82.492
	c1.201,0,2.325,0,3.58,0C922.012,63.738,922.012,36.293,922.012,8.754z"/>
<path fill-rule="evenodd" clip-rule="evenodd" d="M725.462,85.477c1.237,0,2.332,0,3.575,0c0-23.648,0-47.247,0-70.953
	c-1.174,0-2.325,0-3.575,0C725.462,38.179,725.462,61.754,725.462,85.477z"/>
<path fill-rule="evenodd" clip-rule="evenodd" d="M811.926,84.499c1.291,0,2.414,0,3.658,0c0-23.002,0-45.941,0-68.998
	c-1.215,0-2.4,0-3.658,0C811.926,38.509,811.926,61.42,811.926,84.499z"/>
<path fill-rule="evenodd" clip-rule="evenodd" d="M925.047,81.711c1.261,0,2.418,0,3.658,0c0-21.154,0-42.215,0-63.421
	c-1.205,0-2.38,0-3.658,0C925.047,39.452,925.047,60.533,925.047,81.711z"/>
<path fill-rule="evenodd" clip-rule="evenodd" d="M838.548,80.885c1.234,0,2.384,0,3.647,0c0-20.618,0-41.14,0-61.77
	c-1.255,0-2.409,0-3.647,0C838.548,39.713,838.548,60.245,838.548,80.885z"/>
<path fill-rule="evenodd" clip-rule="evenodd" d="M718.804,79.889c1.259,0,2.352,0,3.584,0c0-19.933,0-39.796,0-59.777
	c-1.162,0-2.312,0-3.584,0C718.804,40.018,718.804,59.881,718.804,79.889z"/>
<path fill-rule="evenodd" clip-rule="evenodd" d="M905.13,78.071c1.219,0,2.342,0,3.567,0c0-18.741,0-37.393,0-56.143
	c-1.176,0-2.304,0-3.567,0C905.13,40.607,905.13,59.252,905.13,78.071z"/>
<path fill-rule="evenodd" clip-rule="evenodd" d="M802.271,22.88c-1.278,0-2.406,0-3.651,0c0,18.084,0,36.1,0,54.239
	c1.202,0,2.383,0,3.651,0C802.271,59.02,802.271,41.035,802.271,22.88z"/>
<path fill-rule="evenodd" clip-rule="evenodd" d="M935.351,23.743c-1.23,0-2.383,0-3.641,0c0,17.527,0,34.954,0,52.514
	c1.215,0,2.361,0,3.641,0C935.351,58.756,935.351,41.302,935.351,23.743z"/>
<path fill-rule="evenodd" clip-rule="evenodd" d="M822.217,23.739c-1.278,0-2.401,0-3.617,0c0,17.53,0,34.96,0,52.523
	c1.191,0,2.336,0,3.617,0C822.217,58.756,822.217,41.302,822.217,23.739z"/>
<path fill-rule="evenodd" clip-rule="evenodd" d="M689.137,25.569c-1.249,0-2.373,0-3.625,0c0,16.3,0,32.529,0,48.863
	c1.19,0,2.347,0,3.625,0C689.137,58.197,689.137,41.969,689.137,25.569z"/>
<path fill-rule="evenodd" clip-rule="evenodd" d="M735.685,25.564c-1.242,0-2.333,0-3.562,0c0,16.303,0,32.539,0,48.871
	c1.187,0,2.336,0,3.562,0C735.685,58.139,735.685,41.929,735.685,25.564z"/>
<path fill-rule="evenodd" clip-rule="evenodd" d="M715.709,25.579c-1.224,0-2.315,0-3.536,0c0,16.271,0,32.501,0,48.842
	c1.155,0,2.302,0,3.536,0C715.709,58.149,715.709,41.945,715.709,25.579z"/>
<path fill-rule="evenodd" clip-rule="evenodd" d="M835.494,73.01c0-15.39,0-30.637,0-46.02c-1.154,0-2.268,0-3.554,0
	c0,15.32,0,30.618,0,46.02C833.094,73.01,834.212,73.01,835.494,73.01z"/>
<path fill-rule="evenodd" clip-rule="evenodd" d="M795.566,28.766c-1.214,0-2.305,0-3.549,0c0,14.154,0,28.266,0,42.469
	c1.193,0,2.316,0,3.549,0C795.566,57.105,795.566,43.015,795.566,28.766z"/>
<path fill-rule="evenodd" clip-rule="evenodd" d="M695.781,28.767c-1.263,0-2.356,0-3.605,0c0,14.156,0,28.28,0,42.467
	c1.221,0,2.379,0,3.605,0C695.781,57.063,695.781,42.988,695.781,28.767z"/>
<path fill-rule="evenodd" clip-rule="evenodd" d="M898.417,69.381c1.266,0,2.418,0,3.684,0c0-12.963,0-25.828,0-38.762
	c-1.27,0-2.432,0-3.684,0C898.417,43.532,898.417,56.373,898.417,69.381z"/>
<path fill-rule="evenodd" clip-rule="evenodd" d="M871.836,69.37c1.311,0,2.392,0,3.612,0c0-12.957,0-25.814,0-38.74
	c-1.226,0-2.39,0-3.612,0C871.836,43.537,871.836,56.363,871.836,69.37z"/>
<path fill-rule="evenodd" clip-rule="evenodd" d="M682.439,30.646c-1.206,0-2.334,0-3.539,0c0,12.917,0,25.793,0,38.707
	c1.271,0,2.343,0,3.539,0C682.439,56.403,682.439,43.606,682.439,30.646z"/>
<path fill-rule="evenodd" clip-rule="evenodd" d="M705.513,69.366c1.211,0,2.3,0,3.548,0c0-12.904,0-25.765,0-38.732
	c-1.147,0-2.3,0-3.548,0C705.513,43.519,705.513,56.356,705.513,69.366z"/>
<path fill-rule="evenodd" clip-rule="evenodd" d="M845.241,69.385c1.226,0,2.347,0,3.57,0c0-12.963,0-25.84,0-38.77
	c-1.208,0-2.337,0-3.57,0C845.241,43.536,845.241,56.377,845.241,69.385z"/>
<path fill-rule="evenodd" clip-rule="evenodd" d="M915.378,31.936c-1.208,0-2.359,0-3.621,0c0,12.071,0,24.047,0,36.129
	c1.214,0,2.363,0,3.621,0C915.378,56.004,915.378,44.025,915.378,31.936z"/>
<path fill-rule="evenodd" clip-rule="evenodd" d="M765.391,67.597c1.198,0,2.317,0,3.569,0c0-11.738,0-23.417,0-35.193
	c-1.202,0-2.323,0-3.569,0C765.391,44.099,765.391,55.757,765.391,67.597z"/>
<path fill-rule="evenodd" clip-rule="evenodd" d="M702.457,33.313c-1.236,0-2.391,0-3.647,0c0,11.143,0,22.2,0,33.373
	c1.233,0,2.384,0,3.647,0C702.457,55.542,702.457,44.483,702.457,33.313z"/>
<path fill-rule="evenodd" clip-rule="evenodd" d="M738.77,66.693c1.259,0,2.351,0,3.577,0c0-11.139,0-22.204,0-33.387
	c-1.144,0-2.295,0-3.577,0C738.77,44.433,738.77,55.492,738.77,66.693z"/>
<path fill-rule="evenodd" clip-rule="evenodd" d="M655.827,34.225c-1.224,0-2.32,0-3.546,0c0,10.5,0,20.964,0,31.551
	c1.149,0,2.294,0,3.546,0C655.827,55.247,655.827,44.812,655.827,34.225z"/>
<path fill-rule="evenodd" clip-rule="evenodd" d="M938.407,64.339c1.228,0,2.324,0,3.555,0c0-9.567,0-19.073,0-28.678
	c-1.181,0-2.306,0-3.555,0C938.407,45.192,938.407,54.698,938.407,64.339z"/>
<path fill-rule="evenodd" clip-rule="evenodd" d="M788.933,36.081c-1.227,0-2.349,0-3.59,0c0,9.273,0,18.49,0,27.838
	c1.163,0,2.311,0,3.59,0C788.933,54.684,788.933,45.469,788.933,36.081z"/>
<path fill-rule="evenodd" clip-rule="evenodd" d="M868.758,36.077c-1.194,0-2.316,0-3.539,0c0,9.288,0,18.493,0,27.846
	c1.221,0,2.318,0,3.539,0C868.758,54.574,868.758,45.367,868.758,36.077z"/>
<path fill-rule="evenodd" clip-rule="evenodd" d="M895.417,37.893c-1.208,0-2.356,0-3.623,0c0,8.081,0,16.076,0,24.215
	c1.18,0,2.329,0,3.623,0C895.417,54.062,895.417,46.036,895.417,37.893z"/>
<path fill-rule="evenodd" clip-rule="evenodd" d="M658.894,62.129c1.256,0,2.382,0,3.628,0c0-8.076,0-16.104,0-24.258
	c-1.196,0-2.344,0-3.628,0C658.894,45.93,658.894,53.945,658.894,62.129z"/>
<path fill-rule="evenodd" clip-rule="evenodd" d="M825.308,62.145c1.196,0,2.287,0,3.511,0c0-8.082,0-16.129,0-24.289
	c-1.167,0-2.28,0-3.511,0C825.308,45.95,825.308,53.965,825.308,62.145z"/>
<path fill-rule="evenodd" clip-rule="evenodd" d="M758.709,62.165c1.237-0.062,2.353-0.116,3.624-0.18c0-8.085,0-16.043,0-24.15
	c-1.167,0-2.343,0-3.624,0C758.709,45.901,758.709,53.902,758.709,62.165z"/>
<path fill-rule="evenodd" clip-rule="evenodd" d="M945.073,62.143c1.237,0,2.329,0,3.533,0c0-8.106,0-16.138,0-24.285
	c-1.165,0-2.282,0-3.533,0C945.073,45.934,945.073,53.963,945.073,62.143z"/>
<path fill-rule="evenodd" clip-rule="evenodd" d="M672.271,62.133c1.202,0,2.255,0,3.49,0c0-8.117,0-16.14,0-24.266
	c-1.144,0-2.261,0-3.49,0C672.271,45.97,672.271,54,672.271,62.133z"/>
<path fill-rule="evenodd" clip-rule="evenodd" d="M772.053,60.936c1.253,0.075,2.341,0.143,3.552,0.216c0-7.503,0-14.862,0-22.303
	c-1.202,0-2.326,0-3.552,0C772.053,46.213,772.053,53.524,772.053,60.936z"/>
<path fill-rule="evenodd" clip-rule="evenodd" d="M882.122,39.665c-1.285,0-2.414,0-3.65,0c0,6.909,0,13.751,0,20.671
	c1.226,0,2.382,0,3.65,0C882.122,53.428,882.122,46.623,882.122,39.665z"/>
<path fill-rule="evenodd" clip-rule="evenodd" d="M851.902,60.318c1.216,0,2.306,0,3.556,0c0-6.862,0-13.69,0-20.637
	c-1.106,0-2.258,0-3.556,0C851.902,46.519,851.902,53.34,851.902,60.318z"/>
<path fill-rule="evenodd" clip-rule="evenodd" d="M645.575,40.728c0,6.212,0,12.323,0,18.545c1.231,0,2.381,0,3.648,0
	c0-6.181,0-12.315,0-18.545C648.002,40.728,646.878,40.728,645.575,40.728z"/>
<path fill-rule="evenodd" clip-rule="evenodd" d="M778.659,57.426c1.292,0,2.4,0,3.649,0c0-4.916,0-9.827,0-14.852
	c-1.209,0-2.396,0-3.649,0C778.659,47.494,778.659,52.342,778.659,57.426z"/>
<path fill-rule="evenodd" clip-rule="evenodd" d="M745.417,57.449c1.21,0,2.33,0,3.591,0c0-4.953,0-9.869,0-14.898
	c-1.178,0-2.331,0-3.591,0C745.417,47.489,745.417,52.375,745.417,57.449z"/>
<path fill-rule="evenodd" clip-rule="evenodd" d="M951.701,57.414c1.264,0,2.372,0,3.585,0c0-4.925,0-9.81,0-14.828
	c-1.192,0-2.34,0-3.585,0C951.701,47.497,951.701,52.37,951.701,57.414z"/>
<path fill-rule="evenodd" clip-rule="evenodd" d="M669.198,51.771c0-1.174,0-2.324,0-3.541c-1.256,0-2.408,0-3.673,0
	c0,1.182,0,2.262,0,3.541C666.747,51.771,667.886,51.771,669.198,51.771z"/>
<path fill-rule="evenodd" clip-rule="evenodd" d="M755.685,51.812c0-1.269,0-2.39,0-3.625c-1.238,0-2.383,0-3.636,0
	c0,1.212,0,2.362,0,3.625C753.241,51.812,754.391,51.812,755.685,51.812z"/>
<path fill-rule="evenodd" clip-rule="evenodd" d="M885.104,51.801c1.302,0,2.456,0,3.693,0c0-1.228,0-2.348,0-3.602
	c-1.247,0-2.425,0-3.693,0C885.104,49.414,885.104,50.539,885.104,51.801z"/>
<path fill-rule="evenodd" clip-rule="evenodd" d="M858.547,48.123c0,1.197,0,2.277,0,3.555c1.218,0.066,2.33,0.13,3.574,0.199
	c0-1.33,0-2.479,0-3.754C860.944,48.123,859.826,48.123,858.547,48.123z"/>
<path fill-rule="evenodd" clip-rule="evenodd" d="M958.457,51.756c1.26,0,2.336,0,3.549,0c0-1.208,0-2.313,0-3.512
	c-1.198,0-2.34,0-3.717,0C958.346,49.47,958.4,50.571,958.457,51.756z"/>
<path fill-rule="evenodd" clip-rule="evenodd" d="M1114.988,93.088c-1.195,0-2.322,0-3.588,0c0-28.721,0-57.408,0-86.175
	c1.234,0,2.355,0,3.588,0C1114.988,35.664,1114.988,64.33,1114.988,93.088z"/>
<path fill-rule="evenodd" clip-rule="evenodd" d="M998.282,8.755c1.222,0,2.345,0,3.58,0c0,27.497,0,54.951,0,82.49
	c-1.2,0-2.324,0-3.58,0C998.282,63.738,998.282,36.295,998.282,8.755z"/>
<path fill-rule="evenodd" clip-rule="evenodd" d="M1194.832,85.478c-1.236,0-2.332,0-3.574,0c0-23.647,0-47.249,0-70.955
	c1.176,0,2.326,0,3.574,0C1194.832,38.179,1194.832,61.755,1194.832,85.478z"/>
<path fill-rule="evenodd" clip-rule="evenodd" d="M1108.369,84.499c-1.291,0-2.414,0-3.658,0c0-23.002,0-45.941,0-68.998
	c1.216,0,2.4,0,3.658,0C1108.369,38.509,1108.369,61.42,1108.369,84.499z"/>
<path fill-rule="evenodd" clip-rule="evenodd" d="M995.246,81.711c-1.262,0-2.419,0-3.656,0c0-21.154,0-42.215,0-63.421
	c1.203,0,2.379,0,3.656,0C995.246,39.452,995.246,60.535,995.246,81.711z"/>
<path fill-rule="evenodd" clip-rule="evenodd" d="M1081.747,80.885c-1.235,0-2.386,0-3.648,0c0-20.617,0-41.14,0-61.77
	c1.257,0,2.409,0,3.648,0C1081.747,39.712,1081.747,60.246,1081.747,80.885z"/>
<path fill-rule="evenodd" clip-rule="evenodd" d="M1201.49,79.889c-1.258,0-2.352,0-3.582,0c0-19.932,0-39.796,0-59.777
	c1.161,0,2.311,0,3.582,0C1201.49,40.018,1201.49,59.882,1201.49,79.889z"/>
<path fill-rule="evenodd" clip-rule="evenodd" d="M1015.164,78.071c-1.218,0-2.343,0-3.566,0c0-18.741,0-37.393,0-56.143
	c1.175,0,2.304,0,3.566,0C1015.164,40.607,1015.164,59.252,1015.164,78.071z"/>
<path fill-rule="evenodd" clip-rule="evenodd" d="M1118.023,22.881c1.278,0,2.406,0,3.649,0c0,18.084,0,36.099,0,54.238
	c-1.2,0-2.383,0-3.649,0C1118.023,59.019,1118.023,41.035,1118.023,22.881z"/>
<path fill-rule="evenodd" clip-rule="evenodd" d="M984.944,23.744c1.23,0,2.383,0,3.64,0c0,17.526,0,34.953,0,52.512
	c-1.214,0-2.36,0-3.64,0C984.944,58.755,984.944,41.302,984.944,23.744z"/>
<path fill-rule="evenodd" clip-rule="evenodd" d="M1098.077,23.739c1.279,0,2.402,0,3.618,0c0,17.531,0,34.959,0,52.521
	c-1.191,0-2.337,0-3.618,0C1098.077,58.756,1098.077,41.302,1098.077,23.739z"/>
<path fill-rule="evenodd" clip-rule="evenodd" d="M1231.158,25.569c1.248,0,2.373,0,3.625,0c0,16.3,0,32.529,0,48.863
	c-1.189,0-2.346,0-3.625,0C1231.158,58.197,1231.158,41.969,1231.158,25.569z"/>
<path fill-rule="evenodd" clip-rule="evenodd" d="M1184.609,25.565c1.242,0,2.333,0,3.562,0c0,16.303,0,32.538,0,48.869
	c-1.188,0-2.336,0-3.562,0C1184.609,58.138,1184.609,41.931,1184.609,25.565z"/>
<path fill-rule="evenodd" clip-rule="evenodd" d="M1204.585,25.579c1.223,0,2.314,0,3.536,0c0,16.271,0,32.501,0,48.843
	c-1.155,0-2.303,0-3.536,0C1204.585,58.15,1204.585,41.945,1204.585,25.579z"/>
<path fill-rule="evenodd" clip-rule="evenodd" d="M1084.801,73.01c0-15.39,0-30.637,0-46.02c1.153,0,2.268,0,3.553,0
	c0,15.32,0,30.618,0,46.02C1087.201,73.01,1086.082,73.01,1084.801,73.01z"/>
<path fill-rule="evenodd" clip-rule="evenodd" d="M1124.728,28.767c1.214,0,2.306,0,3.551,0c0,14.154,0,28.265,0,42.467
	c-1.194,0-2.315,0-3.551,0C1124.728,57.104,1124.728,43.015,1124.728,28.767z"/>
<path fill-rule="evenodd" clip-rule="evenodd" d="M1224.514,28.766c1.262,0,2.356,0,3.604,0c0,14.157,0,28.281,0,42.469
	c-1.221,0-2.379,0-3.604,0C1224.514,57.063,1224.514,42.987,1224.514,28.766z"/>
<path fill-rule="evenodd" clip-rule="evenodd" d="M1021.878,69.381c-1.266,0-2.418,0-3.686,0c0-12.963,0-25.828,0-38.762
	c1.271,0,2.433,0,3.686,0C1021.878,43.531,1021.878,56.373,1021.878,69.381z"/>
<path fill-rule="evenodd" clip-rule="evenodd" d="M1048.458,69.37c-1.312,0-2.393,0-3.612,0c0-12.957,0-25.814,0-38.74
	c1.227,0,2.39,0,3.612,0C1048.458,43.538,1048.458,56.363,1048.458,69.37z"/>
<path fill-rule="evenodd" clip-rule="evenodd" d="M1237.855,30.646c1.204,0,2.333,0,3.537,0c0,12.917,0,25.793,0,38.708
	c-1.271,0-2.344,0-3.537,0C1237.855,56.402,1237.855,43.606,1237.855,30.646z"/>
<path fill-rule="evenodd" clip-rule="evenodd" d="M1214.78,69.366c-1.211,0-2.299,0-3.546,0c0-12.903,0-25.763,0-38.732
	c1.147,0,2.3,0,3.546,0C1214.78,43.521,1214.78,56.357,1214.78,69.366z"/>
<path fill-rule="evenodd" clip-rule="evenodd" d="M1075.055,69.387c-1.227,0-2.35,0-3.57,0c0-12.965,0-25.843,0-38.773
	c1.207,0,2.338,0,3.57,0C1075.055,43.536,1075.055,56.379,1075.055,69.387z"/>
<path fill-rule="evenodd" clip-rule="evenodd" d="M1004.916,31.935c1.208,0,2.358,0,3.621,0c0,12.071,0,24.048,0,36.131
	c-1.214,0-2.362,0-3.621,0C1004.916,56.004,1004.916,44.024,1004.916,31.935z"/>
<path fill-rule="evenodd" clip-rule="evenodd" d="M1154.903,67.596c-1.198,0-2.316,0-3.567,0c0-11.736,0-23.415,0-35.192
	c1.2,0,2.321,0,3.567,0C1154.903,44.099,1154.903,55.758,1154.903,67.596z"/>
<path fill-rule="evenodd" clip-rule="evenodd" d="M1217.839,33.313c1.236,0,2.391,0,3.646,0c0,11.142,0,22.2,0,33.373
	c-1.232,0-2.384,0-3.646,0C1217.839,55.542,1217.839,44.484,1217.839,33.313z"/>
<path fill-rule="evenodd" clip-rule="evenodd" d="M1181.524,66.693c-1.259,0-2.351,0-3.576,0c0-11.139,0-22.202,0-33.387
	c1.145,0,2.295,0,3.576,0C1181.524,44.435,1181.524,55.492,1181.524,66.693z"/>
<path fill-rule="evenodd" clip-rule="evenodd" d="M1264.468,34.225c1.224,0,2.319,0,3.547,0c0,10.501,0,20.964,0,31.551
	c-1.15,0-2.294,0-3.547,0C1264.468,55.248,1264.468,44.812,1264.468,34.225z"/>
<path fill-rule="evenodd" clip-rule="evenodd" d="M981.888,64.339c-1.229,0-2.325,0-3.555,0c0-9.567,0-19.071,0-28.678
	c1.181,0,2.306,0,3.555,0C981.888,45.193,981.888,54.698,981.888,64.339z"/>
<path fill-rule="evenodd" clip-rule="evenodd" d="M1131.361,36.08c1.228,0,2.351,0,3.591,0c0,9.273,0,18.491,0,27.84
	c-1.164,0-2.312,0-3.591,0C1131.361,54.684,1131.361,45.467,1131.361,36.08z"/>
<path fill-rule="evenodd" clip-rule="evenodd" d="M1051.538,36.076c1.192,0,2.315,0,3.537,0c0,9.289,0,18.495,0,27.848
	c-1.22,0-2.317,0-3.537,0C1051.538,54.576,1051.538,45.367,1051.538,36.076z"/>
<path fill-rule="evenodd" clip-rule="evenodd" d="M1024.879,37.893c1.205,0,2.354,0,3.621,0c0,8.08,0,16.075,0,24.215
	c-1.182,0-2.328,0-3.621,0C1024.879,54.062,1024.879,46.037,1024.879,37.893z"/>
<path fill-rule="evenodd" clip-rule="evenodd" d="M1261.401,62.129c-1.255,0-2.381,0-3.629,0c0-8.076,0-16.102,0-24.258
	c1.196,0,2.344,0,3.629,0C1261.401,45.929,1261.401,53.945,1261.401,62.129z"/>
<path fill-rule="evenodd" clip-rule="evenodd" d="M1094.986,62.144c-1.196,0-2.287,0-3.51,0c0-8.08,0-16.128,0-24.287
	c1.167,0,2.279,0,3.51,0C1094.986,45.95,1094.986,53.967,1094.986,62.144z"/>
<path fill-rule="evenodd" clip-rule="evenodd" d="M1161.586,62.165c-1.236-0.061-2.354-0.116-3.624-0.179c0-8.087,0-16.044,0-24.151
	c1.168,0,2.343,0,3.624,0C1161.586,45.9,1161.586,53.901,1161.586,62.165z"/>
<path fill-rule="evenodd" clip-rule="evenodd" d="M975.223,62.142c-1.237,0-2.329,0-3.533,0c0-8.105,0-16.137,0-24.283
	c1.166,0,2.283,0,3.533,0C975.223,45.934,975.223,53.963,975.223,62.142z"/>
<path fill-rule="evenodd" clip-rule="evenodd" d="M1248.024,62.135c-1.202,0-2.256,0-3.492,0c0-8.119,0-16.143,0-24.269
	c1.146,0,2.261,0,3.492,0C1248.024,45.97,1248.024,53.998,1248.024,62.135z"/>
<path fill-rule="evenodd" clip-rule="evenodd" d="M1148.241,60.936c-1.253,0.076-2.342,0.143-3.552,0.217c0-7.504,0-14.863,0-22.304
	c1.201,0,2.326,0,3.552,0C1148.241,46.212,1148.241,53.523,1148.241,60.936z"/>
<path fill-rule="evenodd" clip-rule="evenodd" d="M1038.172,39.664c1.286,0,2.413,0,3.651,0c0,6.91,0,13.752,0,20.672
	c-1.228,0-2.383,0-3.651,0C1038.172,53.429,1038.172,46.624,1038.172,39.664z"/>
<path fill-rule="evenodd" clip-rule="evenodd" d="M1068.393,60.317c-1.216,0-2.307,0-3.556,0c0-6.86,0-13.688,0-20.635
	c1.107,0,2.258,0,3.556,0C1068.393,46.52,1068.393,53.341,1068.393,60.317z"/>
<path fill-rule="evenodd" clip-rule="evenodd" d="M1274.721,40.727c0,6.213,0,12.324,0,18.546c-1.232,0-2.383,0-3.65,0
	c0-6.182,0-12.317,0-18.546C1272.291,40.727,1273.416,40.727,1274.721,40.727z"/>
<path fill-rule="evenodd" clip-rule="evenodd" d="M1141.636,57.427c-1.291,0-2.4,0-3.648,0c0-4.918,0-9.828,0-14.854
	c1.208,0,2.395,0,3.648,0C1141.636,47.493,1141.636,52.341,1141.636,57.427z"/>
<path fill-rule="evenodd" clip-rule="evenodd" d="M1174.878,57.449c-1.21,0-2.33,0-3.591,0c0-4.953,0-9.868,0-14.898
	c1.177,0,2.329,0,3.591,0C1174.878,47.489,1174.878,52.375,1174.878,57.449z"/>
<path fill-rule="evenodd" clip-rule="evenodd" d="M968.594,57.412c-1.265,0-2.373,0-3.585,0c0-4.922,0-9.808,0-14.824
	c1.191,0,2.34,0,3.585,0C968.594,47.498,968.594,52.371,968.594,57.412z"/>
<path fill-rule="evenodd" clip-rule="evenodd" d="M1251.097,51.771c0-1.174,0-2.324,0-3.541c1.257,0,2.409,0,3.673,0
	c0,1.184,0,2.263,0,3.541C1253.548,51.771,1252.409,51.771,1251.097,51.771z"/>
<path fill-rule="evenodd" clip-rule="evenodd" d="M1281.346,48.18c0,1.285,0,2.406,0,3.641c-1.2,0-2.315,0-3.593,0
	c0-1.189,0-2.357,0-3.641C1278.941,48.18,1280.084,48.18,1281.346,48.18z"/>
<path fill-rule="evenodd" clip-rule="evenodd" d="M1164.61,51.812c0-1.269,0-2.389,0-3.625c1.238,0,2.383,0,3.636,0
	c0,1.211,0,2.362,0,3.625C1167.053,51.812,1165.904,51.812,1164.61,51.812z"/>
<path fill-rule="evenodd" clip-rule="evenodd" d="M1035.191,51.801c-1.303,0-2.457,0-3.695,0c0-1.227,0-2.348,0-3.602
	c1.25,0,2.426,0,3.695,0C1035.191,49.416,1035.191,50.539,1035.191,51.801z"/>
<path fill-rule="evenodd" clip-rule="evenodd" d="M1061.748,48.124c0,1.197,0,2.277,0,3.554c-1.219,0.068-2.331,0.131-3.575,0.199
	c0-1.331,0-2.479,0-3.753C1059.349,48.124,1060.469,48.124,1061.748,48.124z"/>
<path fill-rule="evenodd" clip-rule="evenodd" d="M1434.39,93.088c-1.193,0-2.319,0-3.586,0c0-28.722,0-57.409,0-86.176
	c1.232,0,2.357,0,3.586,0C1434.39,35.662,1434.39,64.329,1434.39,93.088z"/>
<path fill-rule="evenodd" clip-rule="evenodd" d="M1317.685,8.755c1.22,0,2.345,0,3.581,0c0,27.497,0,54.951,0,82.49
	c-1.202,0-2.326,0-3.581,0C1317.685,63.738,1317.685,36.295,1317.685,8.755z"/>
<path fill-rule="evenodd" clip-rule="evenodd" d="M1514.234,85.478c-1.238,0-2.332,0-3.574,0c0-23.647,0-47.249,0-70.955
	c1.172,0,2.324,0,3.574,0C1514.234,38.178,1514.234,61.755,1514.234,85.478z"/>
<path fill-rule="evenodd" clip-rule="evenodd" d="M1427.772,84.498c-1.292,0-2.416,0-3.659,0c0-23.002,0-45.939,0-68.996
	c1.214,0,2.4,0,3.659,0C1427.772,38.51,1427.772,61.419,1427.772,84.498z"/>
<path fill-rule="evenodd" clip-rule="evenodd" d="M1314.649,81.71c-1.26,0-2.418,0-3.657,0c0-21.153,0-42.214,0-63.42
	c1.205,0,2.38,0,3.657,0C1314.649,39.453,1314.649,60.534,1314.649,81.71z"/>
<path fill-rule="evenodd" clip-rule="evenodd" d="M1401.148,80.886c-1.233,0-2.384,0-3.646,0c0-20.618,0-41.142,0-61.771
	c1.255,0,2.409,0,3.646,0C1401.148,39.712,1401.148,60.246,1401.148,80.886z"/>
<path fill-rule="evenodd" clip-rule="evenodd" d="M1520.893,79.888c-1.257,0-2.351,0-3.582,0c0-19.933,0-39.793,0-59.775
	c1.16,0,2.312,0,3.582,0C1520.893,40.019,1520.893,59.88,1520.893,79.888z"/>
<path fill-rule="evenodd" clip-rule="evenodd" d="M1334.567,78.071c-1.22,0-2.343,0-3.568,0c0-18.741,0-37.394,0-56.143
	c1.178,0,2.304,0,3.568,0C1334.567,40.606,1334.567,59.254,1334.567,78.071z"/>
<path fill-rule="evenodd" clip-rule="evenodd" d="M1437.425,22.88c1.279,0,2.406,0,3.651,0c0,18.084,0,36.1,0,54.239
	c-1.201,0-2.383,0-3.651,0C1437.425,59.02,1437.425,41.036,1437.425,22.88z"/>
<path fill-rule="evenodd" clip-rule="evenodd" d="M1304.347,23.744c1.23,0,2.383,0,3.641,0c0,17.526,0,34.951,0,52.512
	c-1.215,0-2.36,0-3.641,0C1304.347,58.755,1304.347,41.302,1304.347,23.744z"/>
<path fill-rule="evenodd" clip-rule="evenodd" d="M1417.479,23.739c1.277,0,2.401,0,3.617,0c0,17.531,0,34.959,0,52.521
	c-1.191,0-2.336,0-3.617,0C1417.479,58.756,1417.479,41.302,1417.479,23.739z"/>
<path fill-rule="evenodd" clip-rule="evenodd" d="M1550.561,25.569c1.248,0,2.373,0,3.625,0c0,16.301,0,32.527,0,48.861
	c-1.191,0-2.348,0-3.625,0C1550.561,58.196,1550.561,41.97,1550.561,25.569z"/>
<path fill-rule="evenodd" clip-rule="evenodd" d="M1504.013,25.564c1.24,0,2.332,0,3.562,0c0,16.304,0,32.54,0,48.871
	c-1.187,0-2.337,0-3.562,0C1504.013,58.139,1504.013,41.93,1504.013,25.564z"/>
<path fill-rule="evenodd" clip-rule="evenodd" d="M1523.988,25.578c1.222,0,2.314,0,3.535,0c0,16.271,0,32.502,0,48.844
	c-1.155,0-2.303,0-3.535,0C1523.988,58.149,1523.988,41.944,1523.988,25.578z"/>
<path fill-rule="evenodd" clip-rule="evenodd" d="M1404.203,73.01c0-15.39,0-30.638,0-46.02c1.155,0,2.267,0,3.553,0
	c0,15.32,0,30.618,0,46.02C1406.604,73.01,1405.485,73.01,1404.203,73.01z"/>
<path fill-rule="evenodd" clip-rule="evenodd" d="M1444.131,28.766c1.214,0,2.306,0,3.548,0c0,14.154,0,28.266,0,42.469
	c-1.192,0-2.314,0-3.548,0C1444.131,57.104,1444.131,43.014,1444.131,28.766z"/>
<path fill-rule="evenodd" clip-rule="evenodd" d="M1543.915,28.767c1.264,0,2.357,0,3.606,0c0,14.157,0,28.28,0,42.467
	c-1.223,0-2.38,0-3.606,0C1543.915,57.062,1543.915,42.988,1543.915,28.767z"/>
<path fill-rule="evenodd" clip-rule="evenodd" d="M1341.28,69.381c-1.266,0-2.418,0-3.686,0c0-12.963,0-25.828,0-38.762
	c1.271,0,2.434,0,3.686,0C1341.28,43.532,1341.28,56.373,1341.28,69.381z"/>
<path fill-rule="evenodd" clip-rule="evenodd" d="M1367.86,69.371c-1.31,0-2.392,0-3.611,0c0-12.955,0-25.816,0-38.742
	c1.226,0,2.389,0,3.611,0C1367.86,43.537,1367.86,56.364,1367.86,69.371z"/>
<path fill-rule="evenodd" clip-rule="evenodd" d="M1557.258,30.646c1.205,0,2.334,0,3.537,0c0,12.917,0,25.794,0,38.709
	c-1.27,0-2.342,0-3.537,0C1557.258,56.404,1557.258,43.605,1557.258,30.646z"/>
<path fill-rule="evenodd" clip-rule="evenodd" d="M1534.184,69.366c-1.212,0-2.301,0-3.548,0c0-12.903,0-25.764,0-38.732
	c1.146,0,2.299,0,3.548,0C1534.184,43.52,1534.184,56.357,1534.184,69.366z"/>
<path fill-rule="evenodd" clip-rule="evenodd" d="M1394.456,69.386c-1.226,0-2.347,0-3.569,0c0-12.965,0-25.842,0-38.771
	c1.208,0,2.338,0,3.569,0C1394.456,43.536,1394.456,56.379,1394.456,69.386z"/>
<path fill-rule="evenodd" clip-rule="evenodd" d="M1324.318,31.936c1.208,0,2.359,0,3.621,0c0,12.07,0,24.046,0,36.129
	c-1.214,0-2.362,0-3.621,0C1324.318,56.003,1324.318,44.024,1324.318,31.936z"/>
<path fill-rule="evenodd" clip-rule="evenodd" d="M1474.307,67.597c-1.199,0-2.316,0-3.569,0c0-11.738,0-23.416,0-35.193
	c1.201,0,2.323,0,3.569,0C1474.307,44.098,1474.307,55.757,1474.307,67.597z"/>
<path fill-rule="evenodd" clip-rule="evenodd" d="M1537.241,33.313c1.236,0,2.39,0,3.646,0c0,11.142,0,22.2,0,33.373
	c-1.232,0-2.385,0-3.646,0C1537.241,55.542,1537.241,44.483,1537.241,33.313z"/>
<path fill-rule="evenodd" clip-rule="evenodd" d="M1500.926,66.693c-1.257,0-2.35,0-3.574,0c0-11.138,0-22.202,0-33.387
	c1.143,0,2.293,0,3.574,0C1500.926,44.436,1500.926,55.492,1500.926,66.693z"/>
<path fill-rule="evenodd" clip-rule="evenodd" d="M1583.87,34.225c1.226,0,2.32,0,3.547,0c0,10.502,0,20.964,0,31.551
	c-1.149,0-2.294,0-3.547,0C1583.87,55.248,1583.87,44.812,1583.87,34.225z"/>
<path fill-rule="evenodd" clip-rule="evenodd" d="M1301.29,64.34c-1.228,0-2.323,0-3.556,0c0-9.568,0-19.073,0-28.679
	c1.182,0,2.306,0,3.556,0C1301.29,45.193,1301.29,54.699,1301.29,64.34z"/>
<path fill-rule="evenodd" clip-rule="evenodd" d="M1450.765,36.08c1.226,0,2.348,0,3.589,0c0,9.272,0,18.49,0,27.84
	c-1.164,0-2.312,0-3.589,0C1450.765,54.685,1450.765,45.466,1450.765,36.08z"/>
<path fill-rule="evenodd" clip-rule="evenodd" d="M1370.939,36.077c1.195,0,2.317,0,3.539,0c0,9.289,0,18.494,0,27.847
	c-1.22,0-2.317,0-3.539,0C1370.939,54.576,1370.939,45.368,1370.939,36.077z"/>
<path fill-rule="evenodd" clip-rule="evenodd" d="M1344.28,37.892c1.208,0,2.355,0,3.624,0c0,8.08,0,16.076,0,24.217
	c-1.183,0-2.331,0-3.624,0C1344.28,54.062,1344.28,46.036,1344.28,37.892z"/>
<path fill-rule="evenodd" clip-rule="evenodd" d="M1580.804,62.13c-1.256,0-2.383,0-3.629,0c0-8.077,0-16.104,0-24.26
	c1.195,0,2.344,0,3.629,0C1580.804,45.931,1580.804,53.945,1580.804,62.13z"/>
<path fill-rule="evenodd" clip-rule="evenodd" d="M1414.39,62.144c-1.197,0-2.287,0-3.511,0c0-8.081,0-16.13,0-24.287
	c1.167,0,2.279,0,3.511,0C1414.39,45.949,1414.39,53.965,1414.39,62.144z"/>
<path fill-rule="evenodd" clip-rule="evenodd" d="M1480.987,62.164c-1.236-0.061-2.353-0.116-3.622-0.179c0-8.085,0-16.042,0-24.149
	c1.166,0,2.342,0,3.622,0C1480.987,45.901,1480.987,53.902,1480.987,62.164z"/>
<path fill-rule="evenodd" clip-rule="evenodd" d="M1294.624,62.142c-1.235,0-2.327,0-3.531,0c0-8.105,0-16.137,0-24.283
	c1.165,0,2.28,0,3.531,0C1294.624,45.933,1294.624,53.963,1294.624,62.142z"/>
<path fill-rule="evenodd" clip-rule="evenodd" d="M1567.426,62.133c-1.202,0-2.255,0-3.489,0c0-8.116,0-16.139,0-24.266
	c1.143,0,2.261,0,3.489,0C1567.426,45.972,1567.426,54,1567.426,62.133z"/>
<path fill-rule="evenodd" clip-rule="evenodd" d="M1467.645,60.936c-1.255,0.076-2.343,0.143-3.553,0.217c0-7.504,0-14.863,0-22.304
	c1.202,0,2.327,0,3.553,0C1467.645,46.212,1467.645,53.525,1467.645,60.936z"/>
<path fill-rule="evenodd" clip-rule="evenodd" d="M1357.575,39.664c1.285,0,2.414,0,3.649,0c0,6.91,0,13.751,0,20.672
	c-1.226,0-2.381,0-3.649,0C1357.575,53.429,1357.575,46.623,1357.575,39.664z"/>
<path fill-rule="evenodd" clip-rule="evenodd" d="M1387.795,60.317c-1.215,0-2.306,0-3.556,0c0-6.86,0-13.688,0-20.635
	c1.106,0,2.259,0,3.556,0C1387.795,46.519,1387.795,53.341,1387.795,60.317z"/>
<path fill-rule="evenodd" clip-rule="evenodd" d="M1594.121,40.727c0,6.213,0,12.323,0,18.547c-1.23,0-2.381,0-3.646,0
	c0-6.182,0-12.317,0-18.547C1591.693,40.727,1592.818,40.727,1594.121,40.727z"/>
<path fill-rule="evenodd" clip-rule="evenodd" d="M1461.039,57.427c-1.294,0-2.401,0-3.65,0c0-4.917,0-9.828,0-14.854
	c1.21,0,2.397,0,3.65,0C1461.039,47.493,1461.039,52.341,1461.039,57.427z"/>
<path fill-rule="evenodd" clip-rule="evenodd" d="M1494.28,57.448c-1.211,0-2.33,0-3.591,0c0-4.951,0-9.867,0-14.896
	c1.178,0,2.33,0,3.591,0C1494.28,47.49,1494.28,52.376,1494.28,57.448z"/>
<path fill-rule="evenodd" clip-rule="evenodd" d="M1287.996,57.413c-1.264,0-2.372,0-3.585,0c0-4.922,0-9.809,0-14.826
	c1.192,0,2.341,0,3.585,0C1287.996,47.497,1287.996,52.37,1287.996,57.413z"/>
<path fill-rule="evenodd" clip-rule="evenodd" d="M1570.499,51.77c0-1.172,0-2.324,0-3.54c1.257,0,2.408,0,3.673,0
	c0,1.182,0,2.262,0,3.54C1572.95,51.77,1571.812,51.77,1570.499,51.77z"/>
<path fill-rule="evenodd" clip-rule="evenodd" d="M1484.013,51.812c0-1.268,0-2.387,0-3.625c1.238,0,2.383,0,3.636,0
	c0,1.213,0,2.363,0,3.625C1486.456,51.812,1485.306,51.812,1484.013,51.812z"/>
<path fill-rule="evenodd" clip-rule="evenodd" d="M1354.592,51.801c-1.302,0-2.456,0-3.691,0c0-1.226,0-2.347,0-3.602
	c1.246,0,2.424,0,3.691,0C1354.592,49.416,1354.592,50.54,1354.592,51.801z"/>
<path fill-rule="evenodd" clip-rule="evenodd" d="M1381.149,48.123c0,1.197,0,2.277,0,3.555c-1.218,0.066-2.328,0.13-3.573,0.199
	c0-1.33,0-2.479,0-3.754C1378.753,48.123,1379.871,48.123,1381.149,48.123z"/>
<path fill-rule="evenodd" clip-rule="evenodd" d="M1763.514,93.088c1.194,0,2.32,0,3.587,0c0-28.723,0-57.408,0-86.175
	c-1.234,0-2.358,0-3.587,0C1763.514,35.663,1763.514,64.328,1763.514,93.088z"/>
<path fill-rule="evenodd" clip-rule="evenodd" d="M1880.219,8.754c-1.221,0-2.343,0-3.579,0c0,27.497,0,54.952,0,82.492
	c1.2,0,2.324,0,3.579,0C1880.219,63.738,1880.219,36.294,1880.219,8.754z"/>
<path fill-rule="evenodd" clip-rule="evenodd" d="M1683.669,85.477c1.237,0,2.333,0,3.575,0c0-23.647,0-47.247,0-70.953
	c-1.175,0-2.326,0-3.575,0C1683.669,38.18,1683.669,61.754,1683.669,85.477z"/>
<path fill-rule="evenodd" clip-rule="evenodd" d="M1770.132,84.499c1.292,0,2.414,0,3.659,0c0-23.003,0-45.941,0-68.998
	c-1.217,0-2.402,0-3.659,0C1770.132,38.509,1770.132,61.419,1770.132,84.499z"/>
<path fill-rule="evenodd" clip-rule="evenodd" d="M1883.255,81.71c1.263,0,2.419,0,3.657,0c0-21.153,0-42.214,0-63.42
	c-1.204,0-2.379,0-3.657,0C1883.255,39.453,1883.255,60.534,1883.255,81.71z"/>
<path fill-rule="evenodd" clip-rule="evenodd" d="M1796.756,80.885c1.234,0,2.385,0,3.646,0c0-20.618,0-41.14,0-61.77
	c-1.256,0-2.408,0-3.646,0C1796.756,39.713,1796.756,60.245,1796.756,80.885z"/>
<path fill-rule="evenodd" clip-rule="evenodd" d="M1677.012,79.888c1.259,0,2.351,0,3.582,0c0-19.933,0-39.793,0-59.775
	c-1.16,0-2.312,0-3.582,0C1677.012,40.019,1677.012,59.88,1677.012,79.888z"/>
<path fill-rule="evenodd" clip-rule="evenodd" d="M1863.338,78.07c1.218,0,2.342,0,3.566,0c0-18.74,0-37.392,0-56.141
	c-1.177,0-2.304,0-3.566,0C1863.338,40.608,1863.338,59.254,1863.338,78.07z"/>
<path fill-rule="evenodd" clip-rule="evenodd" d="M1760.479,22.88c-1.279,0-2.404,0-3.65,0c0,18.084,0,36.1,0,54.24
	c1.201,0,2.383,0,3.65,0C1760.479,59.019,1760.479,41.035,1760.479,22.88z"/>
<path fill-rule="evenodd" clip-rule="evenodd" d="M1893.558,23.744c-1.23,0-2.383,0-3.64,0c0,17.527,0,34.952,0,52.512
	c1.214,0,2.36,0,3.64,0C1893.558,58.756,1893.558,41.302,1893.558,23.744z"/>
<path fill-rule="evenodd" clip-rule="evenodd" d="M1780.425,23.74c-1.277,0-2.402,0-3.618,0c0,17.531,0,34.958,0,52.52
	c1.192,0,2.337,0,3.618,0C1780.425,58.755,1780.425,41.304,1780.425,23.74z"/>
<path fill-rule="evenodd" clip-rule="evenodd" d="M1647.345,25.57c-1.249,0-2.373,0-3.626,0c0,16.299,0,32.525,0,48.859
	c1.19,0,2.347,0,3.626,0C1647.345,58.196,1647.345,41.969,1647.345,25.57z"/>
<path fill-rule="evenodd" clip-rule="evenodd" d="M1693.892,25.564c-1.24,0-2.332,0-3.561,0c0,16.303,0,32.54,0,48.872
	c1.187,0,2.336,0,3.561,0C1693.892,58.139,1693.892,41.93,1693.892,25.564z"/>
<path fill-rule="evenodd" clip-rule="evenodd" d="M1673.917,25.579c-1.224,0-2.316,0-3.537,0c0,16.271,0,32.5,0,48.842
	c1.155,0,2.302,0,3.537,0C1673.917,58.148,1673.917,41.944,1673.917,25.579z"/>
<path fill-rule="evenodd" clip-rule="evenodd" d="M1793.699,73.009c0-15.39,0-30.636,0-46.018c-1.152,0-2.266,0-3.551,0
	c0,15.32,0,30.617,0,46.018C1791.301,73.009,1792.42,73.009,1793.699,73.009z"/>
<path fill-rule="evenodd" clip-rule="evenodd" d="M1753.773,28.767c-1.215,0-2.307,0-3.549,0c0,14.154,0,28.264,0,42.467
	c1.195,0,2.316,0,3.549,0C1753.773,57.104,1753.773,43.015,1753.773,28.767z"/>
<path fill-rule="evenodd" clip-rule="evenodd" d="M1653.988,28.768c-1.264,0-2.357,0-3.605,0c0,14.155,0,28.278,0,42.465
	c1.221,0,2.379,0,3.605,0C1653.988,57.062,1653.988,42.988,1653.988,28.768z"/>
<path fill-rule="evenodd" clip-rule="evenodd" d="M1856.624,69.381c1.266,0,2.418,0,3.686,0c0-12.962,0-25.829,0-38.762
	c-1.271,0-2.432,0-3.686,0C1856.624,43.531,1856.624,56.373,1856.624,69.381z"/>
<path fill-rule="evenodd" clip-rule="evenodd" d="M1830.043,69.371c1.311,0,2.393,0,3.613,0c0-12.957,0-25.817,0-38.742
	c-1.229,0-2.391,0-3.613,0C1830.043,43.537,1830.043,56.363,1830.043,69.371z"/>
<path fill-rule="evenodd" clip-rule="evenodd" d="M1640.646,30.647c-1.207,0-2.334,0-3.537,0c0,12.916,0,25.791,0,38.705
	c1.27,0,2.342,0,3.537,0C1640.646,56.402,1640.646,43.605,1640.646,30.647z"/>
<path fill-rule="evenodd" clip-rule="evenodd" d="M1663.721,69.366c1.211,0,2.301,0,3.548,0c0-12.903,0-25.765,0-38.732
	c-1.146,0-2.299,0-3.548,0C1663.721,43.519,1663.721,56.357,1663.721,69.366z"/>
<path fill-rule="evenodd" clip-rule="evenodd" d="M1803.447,69.386c1.226,0,2.349,0,3.57,0c0-12.965,0-25.843,0-38.771
	c-1.208,0-2.339,0-3.57,0C1803.447,43.535,1803.447,56.379,1803.447,69.386z"/>
<path fill-rule="evenodd" clip-rule="evenodd" d="M1873.585,31.936c-1.207,0-2.357,0-3.62,0c0,12.07,0,24.046,0,36.129
	c1.214,0,2.362,0,3.62,0C1873.585,56.003,1873.585,44.024,1873.585,31.936z"/>
<path fill-rule="evenodd" clip-rule="evenodd" d="M1723.598,67.596c1.198,0,2.316,0,3.568,0c0-11.738,0-23.416,0-35.191
	c-1.202,0-2.323,0-3.568,0C1723.598,44.099,1723.598,55.756,1723.598,67.596z"/>
<path fill-rule="evenodd" clip-rule="evenodd" d="M1660.663,33.314c-1.235,0-2.389,0-3.646,0c0,11.141,0,22.198,0,33.371
	c1.232,0,2.385,0,3.646,0C1660.663,55.541,1660.663,44.483,1660.663,33.314z"/>
<path fill-rule="evenodd" clip-rule="evenodd" d="M1696.979,66.693c1.256,0,2.35,0,3.574,0c0-11.137,0-22.203,0-33.387
	c-1.143,0-2.293,0-3.574,0C1696.979,44.433,1696.979,55.492,1696.979,66.693z"/>
<path fill-rule="evenodd" clip-rule="evenodd" d="M1614.033,34.225c-1.223,0-2.319,0-3.545,0c0,10.5,0,20.964,0,31.551
	c1.148,0,2.293,0,3.545,0C1614.033,55.248,1614.033,44.812,1614.033,34.225z"/>
<path fill-rule="evenodd" clip-rule="evenodd" d="M1896.614,64.339c1.228,0,2.323,0,3.555,0c0-9.567,0-19.072,0-28.678
	c-1.182,0-2.307,0-3.555,0C1896.614,45.193,1896.614,54.698,1896.614,64.339z"/>
<path fill-rule="evenodd" clip-rule="evenodd" d="M1747.141,36.081c-1.229,0-2.35,0-3.591,0c0,9.272,0,18.49,0,27.839
	c1.164,0,2.312,0,3.591,0C1747.141,54.684,1747.141,45.467,1747.141,36.081z"/>
<path fill-rule="evenodd" clip-rule="evenodd" d="M1826.965,36.077c-1.193,0-2.316,0-3.539,0c0,9.288,0,18.493,0,27.846
	c1.221,0,2.319,0,3.539,0C1826.965,54.574,1826.965,45.367,1826.965,36.077z"/>
<path fill-rule="evenodd" clip-rule="evenodd" d="M1853.624,37.892c-1.208,0-2.354,0-3.623,0c0,8.08,0,16.075,0,24.215
	c1.182,0,2.33,0,3.623,0C1853.624,54.062,1853.624,46.036,1853.624,37.892z"/>
<path fill-rule="evenodd" clip-rule="evenodd" d="M1617.101,62.129c1.255,0,2.382,0,3.628,0c0-8.078,0-16.104,0-24.258
	c-1.194,0-2.343,0-3.628,0C1617.101,45.929,1617.101,53.943,1617.101,62.129z"/>
<path fill-rule="evenodd" clip-rule="evenodd" d="M1783.515,62.143c1.197,0,2.287,0,3.511,0c0-8.08,0-16.128,0-24.286
	c-1.167,0-2.279,0-3.511,0C1783.515,45.95,1783.515,53.965,1783.515,62.143z"/>
<path fill-rule="evenodd" clip-rule="evenodd" d="M1716.917,62.164c1.235-0.061,2.352-0.116,3.622-0.179c0-8.086,0-16.044,0-24.149
	c-1.167,0-2.342,0-3.622,0C1716.917,45.9,1716.917,53.901,1716.917,62.164z"/>
<path fill-rule="evenodd" clip-rule="evenodd" d="M1903.279,62.142c1.238,0,2.331,0,3.534,0c0-8.105,0-16.137,0-24.283
	c-1.165,0-2.282,0-3.534,0C1903.279,45.934,1903.279,53.964,1903.279,62.142z"/>
<path fill-rule="evenodd" clip-rule="evenodd" d="M1630.478,62.133c1.202,0,2.255,0,3.491,0c0-8.116,0-16.141,0-24.266
	c-1.144,0-2.262,0-3.491,0C1630.478,45.969,1630.478,53.999,1630.478,62.133z"/>
<path fill-rule="evenodd" clip-rule="evenodd" d="M1730.261,60.936c1.252,0.075,2.34,0.143,3.551,0.216c0-7.503,0-14.861,0-22.303
	c-1.202,0-2.325,0-3.551,0C1730.261,46.213,1730.261,53.524,1730.261,60.936z"/>
<path fill-rule="evenodd" clip-rule="evenodd" d="M1840.329,39.665c-1.286,0-2.414,0-3.65,0c0,6.908,0,13.751,0,20.67
	c1.227,0,2.383,0,3.65,0C1840.329,53.428,1840.329,46.622,1840.329,39.665z"/>
<path fill-rule="evenodd" clip-rule="evenodd" d="M1810.109,60.316c1.216,0,2.306,0,3.555,0c0-6.86,0-13.688,0-20.633
	c-1.107,0-2.258,0-3.555,0C1810.109,46.519,1810.109,53.341,1810.109,60.316z"/>
<path fill-rule="evenodd" clip-rule="evenodd" d="M1603.782,40.727c0,6.212,0,12.324,0,18.546c1.231,0,2.38,0,3.648,0
	c0-6.182,0-12.317,0-18.546C1606.21,40.727,1605.086,40.727,1603.782,40.727z"/>
<path fill-rule="evenodd" clip-rule="evenodd" d="M1736.866,57.426c1.293,0,2.4,0,3.649,0c0-4.917,0-9.827,0-14.852
	c-1.209,0-2.396,0-3.649,0C1736.866,47.493,1736.866,52.341,1736.866,57.426z"/>
<path fill-rule="evenodd" clip-rule="evenodd" d="M1703.624,57.448c1.21,0,2.33,0,3.591,0c0-4.953,0-9.868,0-14.896
	c-1.178,0-2.33,0-3.591,0C1703.624,47.489,1703.624,52.375,1703.624,57.448z"/>
<path fill-rule="evenodd" clip-rule="evenodd" d="M1909.908,57.412c1.265,0,2.372,0,3.584,0c0-4.922,0-9.808,0-14.825
	c-1.191,0-2.341,0-3.584,0C1909.908,47.496,1909.908,52.369,1909.908,57.412z"/>
<path fill-rule="evenodd" clip-rule="evenodd" d="M1627.406,51.771c0-1.174,0-2.324,0-3.541c-1.256,0-2.408,0-3.674,0
	c0,1.182,0,2.262,0,3.541C1624.955,51.771,1626.094,51.771,1627.406,51.771z"/>
<path fill-rule="evenodd" clip-rule="evenodd" d="M1597.156,48.18c0,1.285,0,2.405,0,3.64c1.198,0,2.313,0,3.592,0
	c0-1.19,0-2.357,0-3.64C1599.559,48.18,1598.416,48.18,1597.156,48.18z"/>
<path fill-rule="evenodd" clip-rule="evenodd" d="M1713.891,51.812c0-1.269,0-2.389,0-3.625c-1.238,0-2.383,0-3.635,0
	c0,1.211,0,2.362,0,3.625C1711.449,51.812,1712.598,51.812,1713.891,51.812z"/>
<path fill-rule="evenodd" clip-rule="evenodd" d="M1843.312,51.801c1.303,0,2.456,0,3.693,0c0-1.227,0-2.348,0-3.602
	c-1.248,0-2.426,0-3.693,0C1843.312,49.415,1843.312,50.539,1843.312,51.801z"/>
<path fill-rule="evenodd" clip-rule="evenodd" d="M1816.754,48.123c0,1.198,0,2.277,0,3.555c1.218,0.067,2.331,0.131,3.575,0.199
	c0-1.329,0-2.479,0-3.754C1819.151,48.123,1818.033,48.123,1816.754,48.123z"/>
<path fill-rule="evenodd" clip-rule="evenodd" d="M1916.664,51.756c1.26,0,2.336,0,3.55,0c0-1.208,0-2.314,0-3.512
	c-1.198,0-2.341,0-3.719,0C1916.554,49.47,1916.606,50.57,1916.664,51.756z"/>
</svg>
