<?xml version="1.0" encoding="iso-8859-1"?>
<!-- Generator: Adobe Illustrator 19.0.0, SVG Export Plug-In . SVG Version: 6.00 Build 0)  -->
<svg version="1.1" id="Layer_1" xmlns="http://www.w3.org/2000/svg" xmlns:xlink="http://www.w3.org/1999/xlink" x="0px" y="0px"
	 viewBox="0 0 512 512" style="enable-background:new 0 0 512 512;" xml:space="preserve">
<g>
	<g>
		<path d="M509.61,241.527l-26.111-26.111c-2.94-2.94-7.62-3.2-10.867-0.602c-0.406,0.324-40.095,31.576-103.351,41.006
			l-3.718-37.178c-1.065-10.644-8.459-19.164-18.252-22.004l12.377-136.145c1.311-14.425-3.538-28.832-13.306-39.528
			c-9.768-10.696-23.678-16.83-38.162-16.83H72.786c-14.484,0-28.394,6.134-38.161,16.83C24.858,31.66,20.008,46.067,21.319,60.492
			l12.377,136.144c-9.793,2.842-17.188,11.361-18.252,22.004L0.47,368.382c-2.671,26.711,6.127,53.447,24.141,73.35
			c14.093,15.572,32.909,25.948,53.287,29.727v19.544c0,9.299,7.565,16.864,16.864,16.864h191.484
			c9.299,0,16.864-7.565,16.864-16.864v-19.544c20.378-3.779,39.194-14.155,53.287-29.727c7.944-8.779,14.094-18.887,18.261-29.734
			c0.772-0.132,1.539-0.366,2.276-0.733c50.4-25.201,67.705-61.855,82.973-94.194c12.235-25.917,22.803-48.3,47.984-62.689
			c2.208-1.262,3.701-3.48,4.039-6.001C512.266,245.859,511.408,243.325,509.61,241.527z M46.675,31.969
			c6.781-7.425,16.054-11.515,26.11-11.515H308.22c10.056,0,19.329,4.09,26.11,11.515c6.781,7.425,10.015,17.03,9.104,27.045
			l-12.418,136.604h-10.5v-9.248c0-14.098-11.469-25.567-25.567-25.567h-78.878v-19.838c10.107-3.414,17.408-12.98,17.408-24.225
			c0-14.098-11.469-25.567-25.567-25.567h-34.815c-14.098,0-25.567,11.469-25.567,25.567c0,11.245,7.3,20.811,17.408,24.225v19.838
			H86.058c-14.098,0-25.567,11.469-25.567,25.567v9.248h-10.5L37.572,59.015C36.662,49,39.894,39.395,46.675,31.969z
			 M173.096,125.987c-5.099,0-9.248-4.148-9.248-9.248c0-5.099,4.148-9.248,9.248-9.248h34.815c5.099,0,9.248,4.148,9.248,9.248
			c0,5.099-4.148,9.248-9.248,9.248H173.096z M199.751,142.307v18.496h-18.496v-18.496H199.751z M294.949,177.122
			c5.099,0,9.248,4.148,9.248,9.248v9.248H76.81v-9.248c0-5.099,4.148-9.248,9.248-9.248H294.949z M286.789,491.003
			c0,0.3-0.244,0.544-0.544,0.544H94.762c-0.299,0-0.544-0.244-0.544-0.544v-17.952h0.978h190.615h0.978V491.003z M344.295,430.781
			c-14.925,16.492-36.242,25.95-58.484,25.95H95.196c-22.243,0-43.559-9.459-58.484-25.95
			c-14.925-16.493-22.215-38.645-20.002-60.776l14.974-149.74c0.474-4.747,4.43-8.327,9.202-8.327h299.238
			c4.771,0,8.727,3.581,9.202,8.327l14.974,149.74C366.511,392.138,359.22,414.29,344.295,430.781z M445.147,310.103
			c-13.624,28.856-27.692,58.61-65.054,80.841c1.035-7.419,1.201-14.991,0.444-22.562l-9.63-96.3
			c54.215-7.897,91.988-30.595,105.98-40.198l14.021,14.022C467.556,262.638,456.636,285.768,445.147,310.103z"/>
	</g>
</g>
<g>
</g>
<g>
</g>
<g>
</g>
<g>
</g>
<g>
</g>
<g>
</g>
<g>
</g>
<g>
</g>
<g>
</g>
<g>
</g>
<g>
</g>
<g>
</g>
<g>
</g>
<g>
</g>
<g>
</g>
</svg>
