<?xml version="1.0" encoding="utf-8"?>
<!-- Generator: Adobe Illustrator 16.0.0, SVG Export Plug-In . SVG Version: 6.00 Build 0)  -->
<!DOCTYPE svg PUBLIC "-//W3C//DTD SVG 1.1//EN" "http://www.w3.org/Graphics/SVG/1.1/DTD/svg11.dtd">
<svg version="1.1" id="Layer_1" xmlns="http://www.w3.org/2000/svg" xmlns:xlink="http://www.w3.org/1999/xlink" x="0px" y="0px"
	 width="250px" height="250px" viewBox="0 0 250 250" enable-background="new 0 0 250 250" xml:space="preserve">
<g id="oOh1DG.tif">
	<g>
		<g>
			<path fill="#FFFFFF" d="M0.554,195.399c0-46.563,0-93.126,0-139.69c83.519,0,167.036,0,250.554,0c0,46.563,0,93.126,0,139.69
				C167.59,195.399,84.073,195.399,0.554,195.399z M58.072,73.602c-6.293,0-12.191-0.053-18.087,0.026
				c-2.393,0.032-4.797,0.237-7.169,0.564c-9.354,1.29-14.138,6.049-15.409,15.366c-0.286,2.095-0.27,4.238-0.286,6.36
				c-0.04,5.17,0.03,10.342-0.03,15.513c-0.089,7.621-2.477,10.585-9.805,12.37c-0.15,0.037-0.261,0.239-0.346,0.321
				c0,3.352,0,6.651,0,9.922c6.809,1.111,9.503,4.021,10.094,10.81c0.088,1.01,0.059,2.03,0.069,3.045
				c0.064,6.37-0.047,12.748,0.236,19.107c0.257,5.763,2.092,10.909,7.539,13.935c5.083,2.822,10.672,3.045,16.37,3.192
				c0-3.679,0-7.109,0-10.572c-0.788-0.08-1.332-0.159-1.879-0.187c-7.093-0.35-9.546-2.818-9.651-9.938
				c-0.08-5.447,0.034-10.896-0.038-16.344c-0.091-6.899-0.964-13.519-7.265-17.925c-0.091-0.063-0.031-0.34-0.053-0.695
				c4.064-2.623,6.272-6.552,6.847-11.367c0.317-2.652,0.424-5.338,0.469-8.012c0.093-5.538-0.01-11.081,0.144-16.617
				c0.108-3.896,1.968-6.723,5.139-7.36c3.005-0.604,6.135-0.585,9.525-0.867c0,1.84,0,3.111,0,4.382
				c0,19.021-0.068,38.043,0.038,57.063c0.037,6.572,1.068,13.066,8.123,15.907c3.833,1.543,8.096,2.02,12.499,3.056
				c0.735-4.312,1.344-7.885,1.946-11.418c-8.092-2.269-9.019-3.508-9.019-11.719c-0.001-21.422,0-42.844-0.001-64.266
				C58.072,76.16,58.072,75.066,58.072,73.602z M115.17,150.184c-10.399,2.748-15.246,3.199-21.378,2.062
				c-7.591-1.409-13.097-8.017-12.145-15.045c12.898,0,25.859,0,39.4,0c-0.334-5.094-0.265-9.817-1.029-14.402
				c-1.335-8.011-5.066-14.693-12.792-18.27c-12.85-5.949-29.801-1.978-36.682,12.77c-4.205,9.012-4.402,18.372-1.74,27.812
				c2.584,9.166,8.672,15.048,17.706,17.823c5.922,1.82,12.04,1.812,18.103,0.997c4.126-0.555,8.18-1.651,12.423-2.538
				C116.341,157.224,115.771,153.795,115.17,150.184z M206.458,173.658c0,3.524,0,6.895,0,10.341
				c0.511,0.062,0.866,0.164,1.212,0.141c1.84-0.129,3.677-0.292,5.515-0.438c11.332-0.903,16.935-6.571,17.324-17.839
				c0.227-6.549,0.08-13.108,0.185-19.662c0.12-7.56,2.919-10.904,10.146-12.183c0-3.342,0-6.705,0-10.287
				c-5.029-0.17-8.277-2.669-9.529-7.407c-0.487-1.845-0.571-3.83-0.607-5.755c-0.126-6.553,0.017-13.114-0.265-19.659
				c-0.22-5.101-1.61-9.929-6.033-13.114c-5.363-3.862-11.607-4.034-17.941-4.161c0,3.714,0,7.083,0,10.59
				c0.881,0.068,1.598,0.142,2.316,0.176c6.509,0.313,9.116,2.908,9.261,9.486c0.111,5.076-0.005,10.156,0.056,15.233
				c0.09,7.469,0.257,14.934,7.848,19.758c-3.878,2.706-6.396,5.931-7.013,10.271c-0.427,3.004-0.73,6.043-0.811,9.073
				c-0.15,5.721,0.012,11.45-0.169,17.169c-0.139,4.389-2.038,6.524-6.318,7.519C210.034,173.281,208.375,173.391,206.458,173.658z
				 M209.039,104.227c-5.409-0.809-10.454-1.852-15.55-2.246c-5.374-0.416-10.613,0.526-15.555,2.993
				c-11.067,5.525-11.188,22.718-1.284,28.292c2.957,1.664,6.118,2.967,9.189,4.429c3.237,1.54,6.579,2.894,9.684,4.666
				c2.249,1.283,3.106,3.538,2.611,6.203c-0.506,2.72-2.464,3.953-4.86,4.19c-3.464,0.343-7.019,0.656-10.448,0.248
				c-4.131-0.491-8.17-1.752-12.404-2.714c-0.722,3.605-1.434,7.168-2.157,10.788c10.037,3.74,19.949,4.348,29.963,2.076
				c7.958-1.806,12.595-6.544,13.379-12.952c1.111-9.08-1.797-14.834-9.794-18.842c-3.121-1.564-6.461-2.682-9.659-4.099
				c-2.268-1.004-4.549-2.026-6.668-3.3c-2.063-1.24-2.923-3.3-2.617-5.707c0.301-2.376,1.821-3.944,4.038-4.391
				c2.678-0.54,5.48-1.022,8.17-0.802c3.805,0.311,7.555,1.287,11.488,2.008C207.295,111.866,208.071,108.469,209.039,104.227z
				 M164.075,104.941c-0.623-0.313-0.932-0.536-1.274-0.629c-1.422-0.386-2.842-0.792-4.285-1.086
				c-8.247-1.68-16.486-2.388-24.407,1.313c-5.482,2.562-8.8,6.817-9.333,13.043c-0.585,6.836,1.443,12.482,7.574,16.004
				c3.178,1.824,6.682,3.075,10.013,4.639c2.83,1.327,5.74,2.542,8.397,4.163c2.179,1.329,3.184,3.531,2.604,6.211
				c-0.572,2.648-2.487,3.943-4.916,4.166c-3.47,0.316-7.021,0.634-10.452,0.231c-4.062-0.476-8.034-1.718-12.369-2.701
				c-0.699,3.533-1.413,7.147-2.138,10.812c10.545,3.819,20.817,4.398,31.167,1.734c5.979-1.539,10.814-5.028,11.855-11.462
				c1.438-8.884-0.075-15.024-8.942-19.705c-2.357-1.244-4.852-2.235-7.305-3.293c-2.62-1.131-5.34-2.057-7.884-3.336
				c-3.443-1.732-4.844-4.214-4.315-6.982c0.506-2.648,2.635-4.251,6.347-4.855c5.895-0.959,11.512,0.331,17.251,2.24
				C162.477,111.904,163.255,108.512,164.075,104.941z"/>
			<path fill-rule="evenodd" clip-rule="evenodd" d="M58.072,73.602c0,1.464,0,2.559,0,3.653c0,21.422,0,42.844,0.001,64.266
				c0,8.211,0.927,9.45,9.019,11.719c-0.603,3.533-1.211,7.105-1.946,11.418c-4.403-1.036-8.666-1.513-12.499-3.056
				c-7.054-2.841-8.085-9.335-8.123-15.907c-0.106-19.021-0.038-38.042-0.038-57.063c0-1.271,0-2.542,0-4.382
				c-3.391,0.282-6.521,0.264-9.525,0.867c-3.171,0.637-5.031,3.463-5.139,7.36c-0.154,5.536-0.051,11.079-0.144,16.617
				c-0.045,2.674-0.152,5.36-0.469,8.012c-0.575,4.815-2.783,8.745-6.847,11.367c0.021,0.355-0.038,0.632,0.053,0.695
				c6.301,4.406,7.173,11.025,7.265,17.925c0.072,5.447-0.042,10.896,0.038,16.344c0.105,7.12,2.558,9.589,9.651,9.938
				c0.547,0.027,1.092,0.106,1.879,0.187c0,3.463,0,6.894,0,10.572c-5.697-0.147-11.286-0.37-16.37-3.192
				c-5.446-3.025-7.282-8.172-7.539-13.935c-0.284-6.359-0.172-12.737-0.236-19.107c-0.01-1.015,0.019-2.035-0.069-3.045
				c-0.59-6.788-3.285-9.698-10.094-10.81c0-3.271,0-6.57,0-9.922c0.084-0.082,0.195-0.284,0.346-0.321
				c7.328-1.785,9.716-4.749,9.805-12.37c0.061-5.17-0.01-10.342,0.03-15.513c0.016-2.122,0-4.266,0.286-6.36
				c1.271-9.317,6.055-14.076,15.409-15.366c2.372-0.327,4.776-0.532,7.169-0.564C45.881,73.548,51.779,73.602,58.072,73.602z"/>
			<path fill-rule="evenodd" clip-rule="evenodd" d="M115.17,150.184c0.601,3.611,1.171,7.04,1.865,11.209
				c-4.243,0.887-8.297,1.983-12.423,2.538c-6.063,0.815-12.181,0.823-18.103-0.997c-9.034-2.775-15.122-8.657-17.706-17.823
				c-2.662-9.44-2.465-18.801,1.74-27.812c6.881-14.748,23.832-18.719,36.682-12.77c7.726,3.577,11.457,10.259,12.792,18.27
				c0.764,4.584,0.694,9.308,1.029,14.402c-13.541,0-26.501,0-39.4,0c-0.952,7.028,4.554,13.636,12.145,15.045
				C99.924,153.383,104.771,152.932,115.17,150.184z M107.154,127.226c0.111-8.703-4.765-14.069-12.451-14.01
				c-7.35,0.056-13.355,6.403-13.1,14.01C90.051,127.226,98.505,127.226,107.154,127.226z"/>
			<path fill-rule="evenodd" clip-rule="evenodd" d="M206.458,173.658c1.917-0.268,3.576-0.377,5.175-0.748
				c4.28-0.994,6.18-3.13,6.318-7.519c0.181-5.719,0.019-11.448,0.169-17.169c0.08-3.03,0.384-6.069,0.811-9.073
				c0.617-4.34,3.135-7.564,7.013-10.271c-7.591-4.825-7.758-12.289-7.848-19.758c-0.061-5.077,0.056-10.157-0.056-15.233
				c-0.145-6.579-2.752-9.173-9.261-9.486c-0.719-0.035-1.436-0.108-2.316-0.176c0-3.506,0-6.876,0-10.59
				c6.334,0.127,12.578,0.298,17.941,4.161c4.423,3.185,5.813,8.013,6.033,13.114c0.281,6.544,0.139,13.106,0.265,19.659
				c0.036,1.925,0.12,3.91,0.607,5.755c1.252,4.738,4.5,7.237,9.529,7.407c0,3.582,0,6.945,0,10.287
				c-7.227,1.278-10.025,4.623-10.146,12.183c-0.104,6.554,0.042,13.113-0.185,19.662c-0.39,11.268-5.992,16.936-17.324,17.839
				c-1.838,0.146-3.675,0.31-5.515,0.438c-0.346,0.023-0.701-0.078-1.212-0.141C206.458,180.553,206.458,177.183,206.458,173.658z"
				/>
			<path fill-rule="evenodd" clip-rule="evenodd" d="M209.039,104.227c-0.968,4.242-1.744,7.64-2.475,10.842
				c-3.934-0.721-7.684-1.697-11.488-2.008c-2.689-0.22-5.492,0.262-8.17,0.802c-2.217,0.447-3.737,2.015-4.038,4.391
				c-0.306,2.407,0.554,4.467,2.617,5.707c2.119,1.274,4.4,2.296,6.668,3.3c3.198,1.417,6.538,2.534,9.659,4.099
				c7.997,4.008,10.905,9.762,9.794,18.842c-0.784,6.408-5.421,11.146-13.379,12.952c-10.014,2.271-19.926,1.664-29.963-2.076
				c0.724-3.62,1.436-7.183,2.157-10.788c4.234,0.962,8.273,2.223,12.404,2.714c3.43,0.408,6.984,0.095,10.448-0.248
				c2.396-0.237,4.354-1.471,4.86-4.19c0.495-2.665-0.362-4.92-2.611-6.203c-3.104-1.772-6.446-3.126-9.684-4.666
				c-3.071-1.462-6.232-2.765-9.189-4.429c-9.903-5.574-9.783-22.768,1.284-28.292c4.941-2.467,10.181-3.409,15.555-2.993
				C198.585,102.375,203.63,103.417,209.039,104.227z"/>
			<path fill-rule="evenodd" clip-rule="evenodd" d="M164.075,104.941c-0.82,3.571-1.599,6.963-2.413,10.507
				c-5.739-1.91-11.356-3.2-17.251-2.24c-3.712,0.604-5.841,2.207-6.347,4.855c-0.528,2.768,0.872,5.25,4.315,6.982
				c2.544,1.279,5.264,2.205,7.884,3.336c2.453,1.058,4.947,2.049,7.305,3.293c8.867,4.681,10.38,10.821,8.942,19.705
				c-1.041,6.434-5.877,9.923-11.855,11.462c-10.35,2.664-20.622,2.085-31.167-1.734c0.725-3.664,1.439-7.278,2.138-10.812
				c4.335,0.983,8.308,2.226,12.369,2.701c3.432,0.402,6.982,0.085,10.452-0.231c2.429-0.223,4.344-1.518,4.916-4.166
				c0.58-2.68-0.425-4.882-2.604-6.211c-2.657-1.621-5.567-2.836-8.397-4.163c-3.331-1.563-6.835-2.814-10.013-4.639
				c-6.131-3.521-8.159-9.168-7.574-16.004c0.533-6.226,3.85-10.48,9.333-13.043c7.921-3.701,16.16-2.994,24.407-1.313
				c1.443,0.294,2.863,0.7,4.285,1.086C163.144,104.405,163.452,104.627,164.075,104.941z"/>
			<path fill-rule="evenodd" clip-rule="evenodd" fill="#FFFFFF" d="M107.154,127.226c-8.649,0-17.103,0-25.551,0
				c-0.255-7.607,5.75-13.955,13.1-14.01C102.389,113.157,107.265,118.522,107.154,127.226z"/>
		</g>
	</g>
</g>
</svg>
