<?xml version="1.0" encoding="utf-8"?>
<!-- Generator: Adobe Illustrator 16.0.0, SVG Export Plug-In . SVG Version: 6.00 Build 0)  -->
<!DOCTYPE svg PUBLIC "-//W3C//DTD SVG 1.1//EN" "http://www.w3.org/Graphics/SVG/1.1/DTD/svg11.dtd">
<svg version="1.1" id="Layer_1" xmlns="http://www.w3.org/2000/svg" xmlns:xlink="http://www.w3.org/1999/xlink" x="0px" y="0px"
	 width="700px" height="300px" viewBox="0 0 700 300" enable-background="new 0 0 700 300" xml:space="preserve">
<g id="_x35_K7WTK_1_">
	<g>
		<g>
			<path d="M307.077,1.317c1.958,0.541,3.904,1.138,5.877,1.616c29.813,7.22,48.366,35.88,42.815,66.164
				c-5.356,29.229-34.152,49.552-64.188,45.302c-29.997-4.245-51.392-30.854-48.977-60.914c2.021-25.162,21.466-46.57,46.49-51.209
				c1.289-0.239,2.548-0.636,3.821-0.959C297.637,1.317,302.356,1.317,307.077,1.317z M344.533,58.284
				c0.081-25.126-19.679-45.364-44.471-45.549c-25.082-0.186-45.194,19.836-45.329,45.127
				c-0.134,25.096,20.154,45.735,44.908,45.685C324.319,103.496,344.454,83.196,344.533,58.284z"/>
			<path d="M31.837,234.076c7.378-16.545,14.794-33.073,22.126-49.639c8.886-20.076,17.698-40.186,26.554-60.273
				c0.517-1.172,1.147-2.295,2.102-4.187c16.514,38.515,32.724,76.32,49.134,114.593c-4.755,0-8.815,0-13.477,0
				c-4.205-10.016-8.517-20.287-12.887-30.697c-15.648,0-31.083,0-46.96,0c-4.354,10.146-8.75,20.393-13.339,31.088
				c-4.475,0-8.864,0-13.253,0C31.837,234.666,31.837,234.371,31.837,234.076z M82.189,148.297
				c-6.507,15.26-12.497,29.307-18.617,43.659c12.544,0,24.336,0,36.822,0C94.339,177.434,88.51,163.454,82.189,148.297z"/>
			<path d="M669.933,14.592c-14.696,0-29.396,0-44.319,0c0,11.044,0,21.568,0,32.627c14.361,0,28.435,0,42.724,0
				c0,3.98,0,7.422,0,11.299c-14.279,0-28.229,0-42.599,0c0,14.448,0,28.465,0,42.805c14.835,0,29.516,0,44.194,0
				c0,3.835,0,7.67,0,11.505c-18.683,0-37.364,0-56.435,0c0-36.477,0-72.746,0-109.742c18.847,0,37.641,0,56.435,0
				C669.933,6.922,669.933,10.757,669.933,14.592z"/>
			<path d="M213.265,1.317c7.309,2.131,14.147,5.078,19.007,11.301c1.333,1.707,2.481,3.558,3.94,5.671
				c-3.306,2.15-6.238,4.059-9.484,6.171c-1.309-1.68-2.491-3.308-3.785-4.84c-7.03-8.324-20.225-9.325-28.142-2.161
				c-7.64,6.914-7.279,17.551,1.049,23.564c3.077,2.222,6.604,3.859,10.033,5.544c5.815,2.859,11.801,5.38,17.566,8.332
				c25.4,13.007,18.552,44.01,0.974,54.748c-21.081,12.878-49.098,0.985-52.675-23.128c3.558-1.031,7.177-2.08,11.17-3.236
				c0.714,2.042,1.282,3.812,1.948,5.545c4.285,11.153,15.061,16.875,26.298,13.983c10.945-2.816,17.743-12.559,16.456-23.483
				c-0.673-5.714-3.685-10.012-8.429-12.845c-4.789-2.859-9.938-5.114-14.925-7.644c-4.857-2.464-9.883-4.652-14.523-7.474
				c-9.122-5.547-13.537-13.844-12.533-24.559C178.223,16,184.198,8.587,193.972,4.179c2.515-1.134,5.188-1.917,7.788-2.861
				C205.595,1.317,209.43,1.317,213.265,1.317z"/>
			<path d="M577.892,1.317c7.008,2.559,14.042,5.047,21.003,7.73c1.601,0.617,2.941,1.906,4.424,2.9c0,4.793,0,9.426,0,14.822
				c-11.56-10.479-24.417-15.763-39.557-13.572c-10.955,1.585-19.904,7.031-27.032,15.449c-14.755,17.426-14.557,42.28,0.594,59.532
				c8.602,9.795,19.47,15.167,32.601,15.323c12.861,0.153,23.56-5.338,33.389-14.103c0,5.339,0,9.976,0,14.544
				c-17.781,14.8-47.308,14.712-67.086-0.737c-18.966-14.813-26.614-34.523-20.884-57.98c5.733-23.463,21.451-37.626,45.036-42.973
				c1.13-0.256,2.235-0.621,3.354-0.936C568.451,1.317,573.172,1.317,577.892,1.317z"/>
			<path d="M584.086,300.452c0-9.834,0-19.667,0-30.142c1.421,0.364,2.66,0.685,4.383,1.125c5.414-2.441,10.026-1.918,13.048,1.809
				c3.137,3.867,3.295,11.335,0.327,15.383c-2.884,3.938-7.109,4.536-14.206,1.868c-0.304,3.369-0.6,6.663-0.896,9.957
				C585.856,300.452,584.972,300.452,584.086,300.452z M600.181,280.98c-0.039-4.781-2.545-7.881-6.434-7.953
				c-4.011-0.077-6.715,3.267-6.644,8.216c0.073,4.987,2.758,8.019,6.971,7.864C598.005,288.968,600.222,286.018,600.181,280.98z"/>
			<path d="M651.348,300.452c-0.042-0.866-0.082-1.731-0.131-2.74c1.46-0.444,2.797-0.851,4.232-1.287
				c0.668-1.54,1.305-3.011,2.007-4.629c-2.719-6.919-5.45-13.866-8.322-21.173c1.511,0,2.601,0,3.875,0
				c1.918,5.266,3.818,10.484,5.72,15.707c0.325,0.08,0.649,0.16,0.976,0.24c1.841-5.239,3.681-10.479,5.594-15.926
				c1.161,0,2.248,0,3.694,0c-3.33,8.617-6.475,16.998-9.846,25.287c-0.686,1.686-2.227,3.021-3.373,4.521
				C654.297,300.452,652.823,300.452,651.348,300.452z"/>
			<path d="M591.138,234.66c-4.896,0-8.985,0-13.513,0c-4.287-10.247-8.59-20.529-12.904-30.84c-15.791,0-31.237,0-46.966,0
				c-4.413,10.33-8.795,20.592-13.186,30.871c-9.048,0-17.713,0-26.686,0c-5.477-7.948-10.991-15.948-16.502-23.951
				c-4.933-7.164-9.809-14.37-14.842-21.465c-0.916-1.291-2.468-2.133-3.726-3.183c-0.368,0.281-0.735,0.562-1.104,0.845
				c0,15.732,0,31.467,0,47.539c-4.145,0-7.885,0-11.974,0c0-36.254,0-72.447,0-109.498c2.281,0,4.562-0.121,6.826,0.021
				c8.804,0.554,17.783,0.277,26.358,1.997c15.33,3.074,22.75,13.076,22.604,28.265c-0.15,15.562-8.551,26.215-23.354,29.619
				c-1.123,0.258-2.244,0.523-3.958,0.926c11.168,15.741,22.136,31.202,33.615,47.385c16.691-37.896,33.104-75.148,49.998-113.501
				C558.439,158.416,574.633,196.175,591.138,234.66z M441.906,135.77c0,14.022,0,26.731,0,39.391
				c6.733,1.226,15.917,0.224,21.367-2.253c7.098-3.227,10.559-9.629,9.975-18.451c-0.595-8.983-4.229-14.497-12.138-16.34
				C455.05,136.704,448.695,136.549,441.906,135.77z M559.781,192.05c-6.108-14.637-11.95-28.633-18.257-43.742
				c-6.506,15.254-12.479,29.262-18.651,43.742C535.333,192.05,547.066,192.05,559.781,192.05z"/>
			<path d="M259.715,234.561c-4.473,0-8.244,0-12.487,0c-4.633-24.293-9.257-48.541-13.881-72.789
				c-0.309-0.092-0.618-0.184-0.926-0.275c-11.487,25.547-22.974,51.095-34.952,77.734c-11.857-26.482-23.311-52.062-34.765-77.646
				c-0.306-0.002-0.611-0.003-0.917-0.004c-4.648,24.317-9.296,48.637-13.964,73.056c-4.203,0-8,0-12.48,0
				c7.357-38.365,14.66-76.453,21.964-114.542c0.284-0.024,0.569-0.047,0.854-0.071c12.955,29.912,25.91,59.824,39.311,90.764
				c13.436-30.927,26.385-60.733,39.335-90.539c0.327-0.008,0.654-0.015,0.981-0.023
				C245.072,158.209,252.356,196.191,259.715,234.561z"/>
			<path d="M324.962,210.8c13.465-30.995,26.419-60.814,39.375-90.634c0.313,0.004,0.627,0.008,0.94,0.011
				c7.283,37.992,14.566,75.983,21.928,114.37c-4.457,0-8.223,0-12.484,0c-4.632-24.279-9.258-48.535-13.885-72.791
				c-0.299-0.105-0.598-0.21-0.896-0.314c-11.511,25.596-23.022,51.191-34.984,77.789c-11.899-26.582-23.359-52.182-34.818-77.779
				c-0.284,0.02-0.567,0.037-0.85,0.057c-4.652,24.354-9.303,48.705-13.971,73.141c-4.24,0-8.037,0-12.479,0
				c7.355-38.367,14.657-76.453,21.958-114.539c0.282-0.039,0.563-0.078,0.846-0.117C298.586,149.886,311.531,179.781,324.962,210.8
				z"/>
			<path d="M108.324,112.705c-5.549,0-10.19,0-15.003,0C83.049,97.782,72.805,82.833,62.449,67.961
				c-0.97-1.393-2.641-2.296-3.986-3.427c-0.352,0.278-0.705,0.556-1.057,0.834c0,15.592,0,31.183,0,47.179
				c-4.086,0-7.823,0-11.937,0c0-36.17,0-72.481,0-109.234c11.807-0.08,23.567-1.04,35.081,2.292
				c14.247,4.124,20.877,13.597,20.461,29.084c-0.39,14.506-8.644,25.053-22.153,28.288c-1.398,0.335-2.812,0.606-5.031,1.082
				C85.366,80.332,96.568,96.127,108.324,112.705z M57.596,53.933c7.616,0.204,14.776,0.172,21.518-2.895
				c7.261-3.304,10.252-9.348,9.609-19.011c-0.559-8.388-4.159-13.754-11.84-15.564c-6.163-1.453-12.617-1.671-19.287-2.479
				C57.596,27.849,57.596,40.586,57.596,53.933z"/>
			<path d="M466.164,65.501c0,15.579,0,31.158,0,47.093c-4.114,0-7.847,0-11.902,0c0-36.334,0-72.631,0-109.306
				c11.828-0.028,23.454-0.997,34.836,2.243c14.637,4.166,21.242,13.698,20.722,29.753c-0.461,14.229-9.083,24.791-22.716,27.827
				c-1.246,0.278-2.491,0.562-4.419,0.997c11.538,16.279,22.739,32.082,34.347,48.457c-5.244,0-9.831,0-14.989,0
				c-4.995-7.255-10.246-14.879-15.496-22.504c-5.098-7.404-10.149-14.84-15.333-22.185c-0.944-1.336-2.419-2.298-3.647-3.433
				C467.098,64.796,466.631,65.149,466.164,65.501z M466.415,13.851c0,14.071,0,26.837,0,40.021
				c8.342,0.292,16.437,0.396,23.687-4.027c7.396-4.512,8.072-11.828,7.284-19.485c-0.719-6.994-4.371-12.139-11.232-13.774
				C479.934,15.103,473.44,14.774,466.415,13.851z"/>
			<path d="M429.58,3.333c4.352,0,7.861,0,11.795,0c0.142,1.356,0.386,2.611,0.386,3.866c0.001,22.999,0.115,45.999-0.098,68.996
				c-0.166,17.909-8.501,30.052-24.099,35.978c-15.72,5.971-33.488,1.973-44.779-9.985c-5.86-6.207-8.825-13.715-8.92-22.04
				c-0.284-24.912-0.191-49.828-0.229-74.742c-0.001-0.56,0.201-1.12,0.358-1.938c3.706,0,7.33,0,11.533,0
				c0.091,1.645,0.264,3.336,0.266,5.028c0.02,20.345-0.001,40.69,0.025,61.036c0.004,3.389,0.035,6.788,0.297,10.164
				c1.104,14.324,12.023,24.01,26.765,23.845c14.763-0.166,25.978-9.968,26.308-24.273c0.534-23.281,0.302-46.581,0.392-69.873
				C429.587,7.513,429.58,5.63,429.58,3.333z"/>
			<path d="M113.559,3.414c18.76,0,37.268,0,56.122,0c0,3.608,0,7.058,0,11.021c-14.503,0-29.016,0-43.845,0
				c0,11.037,0,21.569,0,32.608c14.092,0,28.173,0,42.646,0c0,3.93,0,7.368,0,11.327c-14.01,0-28.096,0-42.573,0
				c0,14.544,0,28.579,0,43.219c14.579,0,29.084,0,43.847,0c0,3.929,0,7.262,0,10.982c-18.644,0-37.262,0-56.196,0
				C113.559,76.355,113.559,40.154,113.559,3.414z"/>
			<path d="M602.774,136.334c-9.032,0-17.509,0-26.24,0c0-3.88,0-7.197,0-10.937c21.6,0,43.132,0,64.936,0c0,3.489,0,6.817,0,10.779
				c-8.645,0-17.244,0-26.36,0c0,33.115,0,65.605,0,98.369c-4.274,0-8.018,0-12.334,0
				C602.774,201.855,602.774,169.375,602.774,136.334z"/>
			<path d="M400.228,125.208c3.975,0,7.604,0,11.606,0c0,36.459,0,72.741,0,109.319c-3.871,0-7.603,0-11.606,0
				C400.228,198.129,400.228,161.951,400.228,125.208z"/>
			<path d="M654.987,125.257c4.098,0,7.723,0,11.631,0c0,36.482,0,72.687,0,109.228c-3.92,0-7.634,0-11.631,0
				C654.987,198.075,654.987,161.879,654.987,125.257z"/>
			<path d="M480.521,291.479c-1.069,0-1.9,0-3.223,0c0-7.277,0-14.426,0-21.572c-0.336-0.064-0.67-0.131-1.005-0.194
				c-2.744,7.192-5.488,14.388-8.306,21.772c-1.154,0-2.257,0-3.557,0c-2.784-7.34-5.524-14.565-8.268-21.791
				c-0.312,0.048-0.624,0.097-0.937,0.145c0,7.08,0,14.16,0,21.53c-1.44,0-2.357,0-3.543,0c0-9.612,0-19.115,0-28.877
				c1.779,0,3.335,0,5.224,0c2.947,7.739,5.899,15.495,9.283,24.38c3.382-8.842,6.35-16.602,9.348-24.439c1.682,0,3.124,0,4.979,0
				C480.521,271.989,480.521,281.471,480.521,291.479z"/>
			<path d="M442.625,276.2c4.177,2.174,5.418,5.749,4.032,9.995c-1.448,4.439-5.115,5.683-9.473,5.6
				c-4.23-0.081-8.467-0.02-12.979-0.02c0-9.93,0-19.409,0-29.232c5.472,0,10.919-0.542,16.206,0.143
				C446.604,263.484,447.596,270.126,442.625,276.2z M428.152,288.404c3.596,0,6.924,0.143,10.233-0.043
				c3.093-0.172,4.857-2.073,4.849-5.154c-0.014-3.252-2.222-4.663-5.159-4.821c-3.194-0.172-6.404-0.038-9.923-0.038
				C428.152,281.734,428.152,284.857,428.152,288.404z M428.107,274.662c3.733,0,7.046,0.495,10.077-0.21
				c1.507-0.351,3.317-2.834,3.464-4.487c0.111-1.281-1.968-3.712-3.387-3.98c-3.192-0.606-6.581-0.19-10.154-0.19
				C428.107,268.895,428.107,271.604,428.107,274.662z"/>
			<path d="M554.065,271.646c4.278-2.654,6.91-2.564,11.175,1.022c1.204-0.715,2.382-1.629,3.711-2.167
				c5.465-2.209,9.938,0.581,10.095,6.348c0.131,4.819,0.026,9.646,0.026,14.571c-1.389,0-2.202,0-3.543,0
				c0-4.446-0.009-8.688,0.003-12.929c0.006-2.898-0.5-5.477-4.18-5.436c-3.33,0.037-5.28,1.909-5.415,5.188
				c-0.178,4.366-0.043,8.747-0.043,13.356c-1.537-0.11-2.35-0.168-3.645-0.263c0-4.427,0.02-8.67-0.008-12.913
				c-0.019-2.652-0.36-5.248-3.804-5.352c-3.322-0.1-5.367,1.898-5.715,5c-0.407,3.641-0.198,7.349-0.288,11.027
				c-0.018,0.715-0.18,1.424-0.273,2.137c-0.401,0.224-0.803,0.445-1.202,0.669c-0.653-1.058-1.839-2.099-1.874-3.177
				c-0.188-5.735-0.089-11.48-0.089-18.158C550.51,270.895,551.732,271.152,554.065,271.646z"/>
			<path d="M521.062,270.91c-1.183,0-2.166,0-3.15-0.006c-3.649-5.594-7.457-7.281-12.35-5.482
				c-4.509,1.657-6.952,6.747-6.39,13.307c0.49,5.725,3.453,9.517,8.015,10.261c5.377,0.877,8.091-1.063,10.957-7.939
				c0.897,0,1.856,0,2.663,0c1.505,2.257-1.655,7.918-5.251,9.9c-6.828,3.766-15.664,1.028-18.83-5.834
				c-4.063-8.812-0.612-19.749,7.18-22.699C511.287,259.621,520.446,263.229,521.062,270.91z"/>
			<path d="M378.371,291.496c-1.912,0-3.02,0-4.236,0c-1.128-2.869-2.191-5.575-3.311-8.424c-4.083,0-8.004,0-12.305,0
				c-1.047,2.537-2.153,5.218-3.445,8.348c-0.993,0.07-2.196,0.155-4.028,0.285c3.944-10.112,7.655-19.628,11.406-29.245
				c1.538,0,2.815,0,4.562,0C370.688,271.85,374.407,281.359,378.371,291.496z M369.538,279.292
				c-1.582-4.39-2.972-8.245-4.362-12.101c-0.347,0.021-0.693,0.041-1.04,0.062c-1.405,3.856-2.812,7.715-4.39,12.038
				C363.221,279.292,365.822,279.292,369.538,279.292z"/>
			<path d="M620.104,278.275c0.201-4.439-1.65-6.232-5.522-5.058c-2.405,0.73-4.433,2.707-7.269,4.537
				c0.817-6.03,3.705-8.103,9.494-7.875c5.361,0.21,7.229,1.992,7.326,7.147c0.066,3.525,0.014,7.055,0.014,10.692
				c0.813,0.919,1.626,1.833,2.438,2.748c-0.122,0.484-0.244,0.968-0.366,1.451c-1.933-0.259-3.864-0.519-5.796-0.776
				c0.066-0.192,0.132-0.386,0.197-0.58c-2.807,0.582-5.609,1.61-8.418,1.627c-3.184,0.02-5.616-1.725-5.918-5.318
				c-0.292-3.471,1.472-5.639,4.676-6.53C614.016,279.492,617.151,278.93,620.104,278.275z M621.145,281.018
				c-3.813,0.764-6.336,0.98-8.607,1.85c-1.078,0.412-2.071,1.973-2.359,3.188c-0.171,0.728,1.118,2.582,1.721,2.568
				c2.35-0.053,5.109-0.027,6.891-1.242C620.139,286.46,620.237,283.702,621.145,281.018z"/>
			<path d="M545.331,281.008c0.037,6.878-3.941,11.301-10.219,11.358c-6.3,0.059-10.406-4.329-10.438-11.149
				c-0.028-6.887,3.934-11.277,10.229-11.338C541.244,269.818,545.294,274.141,545.331,281.008z M541.624,280.92
				c-0.075-4.674-2.735-7.863-6.575-7.888c-3.963-0.024-6.763,3.427-6.691,8.249c0.067,4.67,2.713,7.798,6.61,7.818
				C539.045,289.123,541.704,285.854,541.624,280.92z"/>
			<path d="M399.096,291.504c-1.326,0-2.16,0-3.533,0c0-4.332-0.035-8.559,0.013-12.781c0.032-2.947-0.656-5.432-4.106-5.637
				c-3.611-0.215-6.099,1.648-6.392,5.252c-0.343,4.213-0.079,8.475-0.079,13.016c-1.383,0.064-2.286,0.105-3.414,0.158
				c0-7.021,0-13.744,0-21.227c1.455,0.517,2.667,0.947,4.248,1.508c1.123-0.439,2.811-1.428,4.616-1.743
				c5.122-0.896,8.276,1.648,8.574,6.853c0.19,3.371,0.062,6.76,0.072,10.141C399.1,288.352,399.096,289.66,399.096,291.504z"/>
			<path d="M644.019,291.178c0-4.09,0.016-8.18-0.005-12.269c-0.015-3.04-0.653-5.773-4.421-5.836
				c-3.627-0.06-5.931,1.876-6.124,5.538c-0.224,4.214-0.053,8.449-0.053,12.814c-1.518,0-2.326,0-3.42,0c0-7.048,0-13.881,0-21.624
				c1.659,0.962,2.716,1.572,3.682,2.132c1.771-0.635,3.619-1.654,5.573-1.927c4.782-0.666,7.731,1.638,8.089,6.456
				c0.315,4.24,0.229,8.523,0.054,12.777c-0.038,0.945-1.196,1.846-1.839,2.767C645.043,291.73,644.53,291.454,644.019,291.178z"/>
			<path d="M414.447,262.473c1.168,0,2.018,0,3.219,0c0,9.627,0,19.109,0,28.909c-1.015,0.081-1.96,0.157-3.219,0.259
				C414.447,281.916,414.447,272.417,414.447,262.473z"/>
		</g>
	</g>
</g>
</svg>
