<?xml version="1.0" encoding="utf-8"?>
<!-- Generator: Adobe Illustrator 16.0.0, SVG Export Plug-In . SVG Version: 6.00 Build 0)  -->
<!DOCTYPE svg PUBLIC "-//W3C//DTD SVG 1.1//EN" "http://www.w3.org/Graphics/SVG/1.1/DTD/svg11.dtd">
<svg version="1.1" id="Layer_1" xmlns="http://www.w3.org/2000/svg" xmlns:xlink="http://www.w3.org/1999/xlink" x="0px" y="0px"
	 width="250px" height="224.6px" viewBox="0 0 250 224.6" enable-background="new 0 0 250 224.6" xml:space="preserve">
<path d="M194.09,78.745c-2.283-0.783-4.584-1.508-6.902-2.175c0.385-1.562,0.74-3.132,1.066-4.708
	c5.225-25.365,1.809-45.799-9.857-52.524c-11.188-6.452-29.48,0.275-47.957,16.354c-1.82,1.588-3.602,3.222-5.339,4.899
	c-1.164-1.116-2.349-2.21-3.553-3.282c-19.363-17.192-38.772-24.438-50.429-17.691c-11.175,6.469-14.485,25.68-9.781,49.717
	c0.468,2.38,0.996,4.749,1.584,7.104c-2.747,0.779-5.397,1.61-7.936,2.495c-22.702,7.915-37.2,20.319-37.2,33.187
	c0,13.29,15.562,26.619,39.21,34.7c1.917,0.651,3.851,1.257,5.798,1.812c-0.632,2.536-1.193,5.089-1.684,7.656
	c-4.485,23.62-0.982,42.375,10.164,48.805c11.512,6.639,30.833-0.186,49.647-16.631c1.487-1.301,2.979-2.68,4.476-4.125
	c1.882,1.816,3.816,3.58,5.796,5.288c18.223,15.683,36.223,22.016,47.357,15.568c11.502-6.657,15.238-26.807,10.385-51.319
	c-0.367-1.871-0.801-3.784-1.283-5.73c1.355-0.4,2.688-0.814,3.986-1.245c24.582-8.145,40.576-21.312,40.576-34.778
	C232.215,99.206,217.248,86.717,194.09,78.745L194.09,78.745z"/>
<path fill="#FFFFFF" d="M188.758,138.203c-1.174,0.388-2.375,0.763-3.602,1.126c-2.715-8.591-6.377-17.728-10.859-27.165
	c4.277-9.214,7.799-18.232,10.438-26.77c2.191,0.637,4.322,1.306,6.375,2.013c19.844,6.83,31.945,16.93,31.945,24.711
	C223.055,120.409,209.982,131.17,188.758,138.203L188.758,138.203z M179.949,155.654c2.146,10.84,2.453,20.64,1.031,28.301
	c-1.277,6.885-3.846,11.474-7.021,13.312c-6.758,3.911-21.209-1.174-36.793-14.584c-1.787-1.538-3.588-3.18-5.393-4.916
	c6.043-6.608,12.08-14.292,17.973-22.823c10.369-0.919,20.162-2.424,29.043-4.477C179.225,152.232,179.615,153.961,179.949,155.654
	L179.949,155.654z M90.889,196.59c-6.603,2.332-11.86,2.398-15.039,0.566c-6.765-3.9-9.575-18.961-5.741-39.16
	c0.457-2.387,0.979-4.762,1.565-7.12c8.783,1.943,18.507,3.342,28.897,4.184c5.932,8.35,12.146,16.021,18.407,22.741
	c-1.331,1.288-2.693,2.542-4.086,3.763C106.574,188.836,98.237,193.996,90.889,196.59L90.889,196.59L90.889,196.59z M59.958,138.152
	c-10.456-3.573-19.091-8.219-25.01-13.286c-5.318-4.556-8.003-9.077-8.003-12.746c0-7.808,11.641-17.767,31.056-24.536
	c2.438-0.846,4.898-1.62,7.38-2.323c2.685,8.729,6.204,17.854,10.451,27.082c-4.303,9.365-7.873,18.638-10.581,27.468
	C63.473,139.3,61.708,138.747,59.958,138.152z M70.327,67.576c-4.03-20.597-1.354-36.132,5.381-40.03
	c7.174-4.152,23.037,1.77,39.756,16.614c1.069,0.948,2.143,1.942,3.217,2.97c-6.229,6.689-12.385,14.305-18.266,22.605
	C90.33,70.67,80.675,72.171,71.8,74.182C71.253,71.992,70.762,69.789,70.327,67.576L70.327,67.576z M162.82,90.415
	c-2.096-3.621-4.27-7.196-6.52-10.725c6.842,0.864,13.396,2.014,19.553,3.418c-1.85,5.923-4.152,12.115-6.863,18.465
	C167.008,97.814,164.951,94.093,162.82,90.415L162.82,90.415z M125.102,53.676c4.226,4.577,8.457,9.688,12.619,15.233
	c-8.443-0.398-16.9-0.401-25.344-0.006C116.542,63.41,120.811,58.306,125.102,53.676z M87.141,90.477
	c-2.104,3.649-4.122,7.347-6.053,11.089c-2.668-6.326-4.949-12.547-6.813-18.554c6.118-1.37,12.642-2.487,19.439-3.338
	C91.439,83.223,89.248,86.825,87.141,90.477z M93.91,145.218c-7.022-0.783-13.646-1.846-19.762-3.177
	c1.894-6.113,4.226-12.469,6.951-18.931c1.938,3.744,3.966,7.444,6.079,11.095C89.333,137.93,91.579,141.602,93.91,145.218z
	 M125.355,171.21c-4.341-4.686-8.671-9.867-12.901-15.439c4.105,0.161,8.292,0.241,12.545,0.241c4.373,0,8.693-0.097,12.945-0.287
	C133.768,161.4,129.553,166.589,125.355,171.21z M169.076,122.781c2.867,6.532,5.283,12.853,7.201,18.862
	c-6.217,1.418-12.93,2.562-20.002,3.409c2.266-3.594,4.461-7.23,6.584-10.911C165.014,130.402,167.088,126.614,169.076,122.781z
	 M154.924,129.566c-3.248,5.644-6.68,11.179-10.287,16.599c-6.361,0.455-12.938,0.688-19.637,0.688
	c-6.671,0-13.163-0.207-19.414-0.612c-3.702-5.406-7.198-10.951-10.479-16.623c-3.267-5.642-6.318-11.404-9.148-17.277
	c2.822-5.875,5.865-11.641,9.121-17.287v0.002c3.255-5.646,6.723-11.168,10.397-16.552c6.377-0.482,12.916-0.735,19.524-0.735
	c6.64,0,13.187,0.254,19.562,0.74c3.639,5.376,7.084,10.877,10.332,16.496c3.268,5.633,6.35,11.372,9.244,17.206
	C161.273,118.103,158.199,123.892,154.924,129.566L154.924,129.566z M173.82,27.273c7.18,4.142,9.973,20.842,5.461,42.741
	c-0.295,1.427-0.617,2.849-0.965,4.263c-8.896-2.052-18.557-3.58-28.67-4.529c-5.893-8.391-11.996-16.02-18.125-22.622
	c1.605-1.548,3.25-3.058,4.93-4.523C152.283,28.825,167.078,23.385,173.82,27.273z"/>
<path d="M124.999,92.972c10.576,0,19.148,8.573,19.148,19.147c0,10.575-8.572,19.147-19.148,19.147
	c-10.574,0-19.146-8.572-19.146-19.147S114.425,92.972,124.999,92.972"/>
</svg>
